<svg xmlns="http://www.w3.org/2000/svg" xmlns:xlink="http://www.w3.org/1999/xlink" width="40" zoomAndPan="magnify" viewBox="0 0 30 30.000001" height="40" preserveAspectRatio="xMidYMid meet" version="1.0"><defs><clipPath id="bc316eca2e"><path d="M 2.296875 0 L 27.703125 0 L 27.703125 29.03125 L 2.296875 29.03125 Z M 2.296875 0 " clip-rule="nonzero"/></clipPath><clipPath id="ed344745f1"><path d="M 7.015625 5.371094 L 22.984375 5.371094 L 22.984375 21.339844 L 7.015625 21.339844 Z M 7.015625 5.371094 " clip-rule="nonzero"/></clipPath></defs><g clip-path="url(#bc316eca2e)"><path fill="#ffffff" d="M 21.351562 2.238281 C 18.246094 2.179688 15.828125 0.566406 15 0 C 14.175781 0.566406 11.753906 2.179688 8.648438 2.238281 C 5.242188 2.320312 3.105469 1.492188 2.300781 0.949219 L 2.300781 12.039062 C 2.300781 19.054688 7.742188 26.976562 15 29.03125 C 18.628906 28.003906 21.816406 25.503906 24.074219 22.398438 C 26.332031 19.296875 27.703125 15.546875 27.703125 12.039062 L 27.703125 0.949219 C 26.894531 1.492188 24.757812 2.320312 21.351562 2.238281 Z M 26.332031 12.039062 C 26.332031 15.164062 25.101562 18.648438 22.964844 21.59375 C 20.828125 24.535156 18.003906 26.652344 15 27.621094 C 11.976562 26.675781 9.175781 24.535156 7.039062 21.613281 C 4.902344 18.691406 3.671875 15.164062 3.671875 12.039062 L 3.671875 3.003906 C 5.140625 3.429688 6.675781 3.628906 8.207031 3.609375 L 8.691406 3.609375 C 10.808594 3.550781 12.964844 2.863281 15 1.613281 C 17.039062 2.863281 19.195312 3.550781 21.3125 3.589844 L 21.796875 3.589844 C 23.328125 3.609375 24.859375 3.410156 26.332031 2.984375 Z M 26.332031 12.039062 " fill-opacity="1" fill-rule="nonzero"/></g><g clip-path="url(#ed344745f1)"><path fill="#ffffff" d="M 15 12.558594 C 16.355469 12.558594 17.394531 13.59375 17.394531 14.953125 C 17.394531 15.988281 16.675781 16.867188 15.796875 17.1875 L 15.796875 18.144531 L 14.203125 18.144531 L 14.203125 17.1875 C 13.242188 16.867188 12.605469 15.988281 12.605469 14.953125 L 14.203125 14.953125 C 14.203125 15.429688 14.519531 15.75 15 15.75 C 15.480469 15.75 15.796875 15.429688 15.796875 14.953125 C 15.796875 14.472656 15.480469 14.152344 15 14.152344 C 13.644531 14.152344 12.605469 13.117188 12.605469 11.757812 C 12.605469 10.71875 13.324219 9.84375 14.203125 9.523438 L 14.203125 8.566406 L 15.796875 8.566406 L 15.796875 9.523438 C 16.757812 9.84375 17.394531 10.71875 17.394531 11.757812 L 15.796875 11.757812 C 15.796875 11.28125 15.480469 10.960938 15 10.960938 C 14.519531 10.960938 14.203125 11.359375 14.203125 11.757812 C 14.203125 12.238281 14.519531 12.558594 15 12.558594 Z M 15 5.371094 C 10.609375 5.371094 7.015625 8.964844 7.015625 13.355469 C 7.015625 17.746094 10.609375 21.339844 15 21.339844 C 19.390625 21.339844 22.984375 17.746094 22.984375 13.355469 C 22.984375 8.964844 19.390625 5.371094 15 5.371094 " fill-opacity="1" fill-rule="nonzero"/></g></svg>