<?xml version="1.0" encoding="UTF-8"?>
<svg id="Capa_1" data-name="Capa 1" xmlns="http://www.w3.org/2000/svg" viewBox="0 0 113.58 113.58">
  <defs>
    <style>
      .cls-1 {
        fill: #c6c6c6;
        stroke-width: 0px;
      }
    </style>
  </defs>
  <path class="cls-1" d="M58.72,50.73v7.51h1.43c8.64,0,17.29,0,25.93,0,4.14,0,6.37,2.24,6.38,6.38,0,1.56.01,3.13,0,4.69-.01,1.38-.72,2.23-1.85,2.25-1.13.01-1.88-.84-1.89-2.2-.02-1.6,0-3.21,0-4.81,0-1.92-.61-2.55-2.51-2.55-4.38,0-8.76,0-13.14,0-15.1,0-30.2,0-45.29,0-2.4,0-2.89.49-2.89,2.87,0,1.53.02,3.05,0,4.58-.02,1.26-.81,2.11-1.89,2.09-1.08-.01-1.83-.86-1.85-2.14-.02-1.72-.01-3.44,0-5.16.02-3.64,2.38-5.99,6.05-5.99,8.06,0,16.12,0,24.17,0,1.13,0,2.26,0,3.48,0v-7.51c-.47,0-.93,0-1.39,0-7.47,0-14.94.05-22.41-.02-6.94-.06-12.63-4.69-14.23-11.41-1.81-7.59,2.95-15.49,10.48-17.49.6-.16,1.25-.61,1.62-1.12,2.58-3.59,6.01-5.72,10.38-6.41.42-.07.92-.4,1.15-.76,7.79-12.44,24.96-12.43,32.75.02.22.36.73.68,1.15.75,4.36.69,7.81,2.8,10.38,6.4.35.48.94.94,1.51,1.09,7.36,2.02,11.63,8.45,10.71,16.25-.84,7.17-6.66,12.52-14.03,12.64-7.55.13-15.1.04-22.65.05-.46,0-.93,0-1.5,0Z"/>
  <path class="cls-1" d="M28.56,109.37c-6.1,0-12.2,0-18.31,0-2.91,0-4.17-1.24-4.17-4.11,0-7.2,0-14.4,0-21.59,0-2.79,1.29-4.08,4.1-4.08,6.73,0,13.46-.02,20.18.02.8,0,1.34-.19,1.69-.92.15-.32.38-.59.56-.9,1.12-1.97,2.64-2.97,5.06-2.81,3.12.2,6.26.04,9.39.05,2.84,0,4.09,1.26,4.09,4.06,0,8.72,0,17.45,0,26.17,0,2.87-1.26,4.11-4.17,4.11-6.14,0-12.28,0-18.42,0Z"/>
  <path class="cls-1" d="M84.87,109.37c-6.14,0-12.28,0-18.42,0-2.73,0-4.03-1.29-4.03-4.02,0-7.2,0-14.4,0-21.59,0-2.89,1.26-4.17,4.12-4.17,6.69,0,13.38-.02,20.07.02.91,0,1.48-.25,1.86-1.05.18-.39.47-.72.69-1.09,1.05-1.76,2.48-2.6,4.64-2.49,3.24.16,6.49.03,9.74.05,2.67.01,3.95,1.31,3.95,3.97,0,8.8,0,17.6,0,26.4,0,2.66-1.31,3.97-3.95,3.97-6.22,0-12.44,0-18.66,0Z"/>
</svg>