<svg xmlns="http://www.w3.org/2000/svg" xmlns:xlink="http://www.w3.org/1999/xlink" width="40" zoomAndPan="magnify" viewBox="0 0 30 30.000001" height="40" preserveAspectRatio="xMidYMid meet" version="1.0"><defs><clipPath id="8724bbafe5"><path d="M 0.484375 12.324219 L 29.515625 12.324219 L 29.515625 16.679688 L 0.484375 16.679688 Z M 0.484375 12.324219 " clip-rule="nonzero"/></clipPath></defs><g clip-path="url(#8724bbafe5)"><path fill="#ffffff" d="M 12.320312 13.894531 C 12.136719 13.886719 11.960938 13.917969 11.789062 13.984375 C 11.621094 14.050781 11.472656 14.148438 11.34375 14.277344 C 11.214844 14.40625 11.117188 14.554688 11.054688 14.726562 C 10.988281 14.898438 10.960938 15.074219 10.96875 15.253906 C 10.96875 16.070312 11.570312 16.617188 12.433594 16.617188 C 12.671875 16.621094 12.902344 16.578125 13.125 16.488281 L 13.492188 15.871094 L 13.441406 15.84375 C 13.144531 16.003906 12.828125 16.089844 12.492188 16.09375 C 12.046875 16.09375 11.660156 15.871094 11.617188 15.480469 L 13.589844 15.480469 L 13.589844 15.300781 C 13.589844 14.402344 13.042969 13.894531 12.320312 13.894531 M 11.617188 14.996094 C 11.625 14.816406 11.691406 14.667969 11.824219 14.546875 C 11.953125 14.425781 12.105469 14.371094 12.285156 14.378906 C 12.691406 14.378906 12.9375 14.617188 12.941406 14.996094 Z M 25.757812 13.894531 C 25.574219 13.886719 25.398438 13.917969 25.226562 13.984375 C 25.058594 14.050781 24.910156 14.148438 24.78125 14.277344 C 24.652344 14.40625 24.554688 14.554688 24.492188 14.726562 C 24.425781 14.898438 24.398438 15.074219 24.40625 15.257812 C 24.40625 16.070312 25.007812 16.617188 25.871094 16.617188 C 26.109375 16.621094 26.339844 16.578125 26.558594 16.488281 L 26.929688 15.871094 L 26.878906 15.847656 C 26.582031 16.007812 26.265625 16.089844 25.925781 16.097656 C 25.480469 16.097656 25.097656 15.871094 25.054688 15.484375 L 27.023438 15.484375 C 27.109375 14.46875 26.566406 13.894531 25.757812 13.894531 M 25.050781 14.996094 C 25.058594 14.820312 25.128906 14.671875 25.257812 14.550781 C 25.386719 14.429688 25.542969 14.375 25.71875 14.378906 C 26.125 14.378906 26.371094 14.617188 26.378906 14.996094 Z M 16.71875 13.894531 C 16.535156 13.886719 16.359375 13.917969 16.191406 13.984375 C 16.019531 14.050781 15.871094 14.148438 15.742188 14.277344 C 15.613281 14.40625 15.519531 14.558594 15.453125 14.726562 C 15.386719 14.898438 15.359375 15.074219 15.367188 15.253906 C 15.367188 16.070312 15.96875 16.617188 16.832031 16.617188 C 17.070312 16.621094 17.300781 16.578125 17.523438 16.488281 L 17.890625 15.871094 L 17.839844 15.847656 C 17.546875 16.007812 17.226562 16.089844 16.890625 16.097656 C 16.445312 16.097656 16.058594 15.871094 16.015625 15.484375 L 17.988281 15.484375 C 18.074219 14.46875 17.527344 13.894531 16.71875 13.894531 M 16.015625 14.996094 C 16.023438 14.820312 16.09375 14.671875 16.222656 14.550781 C 16.351562 14.429688 16.507812 14.371094 16.683594 14.378906 C 17.089844 14.378906 17.335938 14.617188 17.34375 14.996094 Z M 3.355469 14.535156 L 3.355469 14.527344 C 3.550781 14.480469 3.710938 14.382812 3.835938 14.226562 C 3.960938 14.066406 4.019531 13.890625 4.019531 13.691406 C 4.019531 12.992188 3.425781 12.726562 2.851562 12.726562 L 0.902344 12.726562 L 0.902344 12.785156 L 1.097656 12.953125 C 1.332031 13.144531 1.363281 13.179688 1.363281 13.355469 L 1.363281 16.554688 L 2.738281 16.554688 C 3.460938 16.554688 4.183594 16.292969 4.183594 15.460938 C 4.1875 15.222656 4.109375 15.015625 3.953125 14.835938 C 3.792969 14.660156 3.597656 14.558594 3.359375 14.539062 M 2.042969 13.3125 L 2.601562 13.3125 C 2.980469 13.3125 3.097656 13.363281 3.210938 13.472656 C 3.304688 13.5625 3.347656 13.675781 3.339844 13.804688 C 3.34375 13.929688 3.300781 14.035156 3.207031 14.121094 C 3.097656 14.230469 2.941406 14.28125 2.660156 14.28125 L 2.042969 14.28125 Z M 2.667969 15.96875 L 2.042969 15.96875 L 2.042969 14.867188 L 2.695312 14.867188 C 3.242188 14.867188 3.5 15.007812 3.5 15.40625 C 3.5 15.910156 3.015625 15.96875 2.667969 15.96875 M 5.464844 13.078125 C 5.472656 13.195312 5.4375 13.296875 5.359375 13.382812 C 5.28125 13.46875 5.183594 13.515625 5.066406 13.519531 C 4.949219 13.527344 4.847656 13.488281 4.765625 13.410156 C 4.679688 13.328125 4.636719 13.230469 4.632812 13.113281 C 4.628906 12.996094 4.671875 12.898438 4.75 12.8125 C 4.832031 12.730469 4.933594 12.6875 5.046875 12.6875 C 5.160156 12.683594 5.257812 12.71875 5.339844 12.792969 C 5.421875 12.871094 5.464844 12.964844 5.46875 13.078125 M 4.378906 13.960938 L 5.371094 13.960938 L 5.371094 16.550781 L 4.726562 16.550781 L 4.726562 14.511719 C 4.726562 14.296875 4.714844 14.261719 4.480469 14.082031 L 4.378906 14.003906 Z M 9.527344 12.613281 L 9.730469 12.746094 C 9.914062 12.863281 9.941406 12.917969 9.941406 13.082031 L 9.941406 14.285156 L 9.925781 14.285156 C 9.699219 14.003906 9.40625 13.875 9.046875 13.890625 C 8.308594 13.890625 7.796875 14.484375 7.796875 15.25 C 7.796875 16.019531 8.277344 16.613281 9.074219 16.613281 C 9.457031 16.632812 9.753906 16.484375 9.964844 16.164062 L 9.972656 16.164062 L 10.042969 16.550781 L 10.585938 16.550781 L 10.585938 12.566406 L 9.527344 12.566406 Z M 9.203125 16.03125 C 8.988281 16.035156 8.800781 15.964844 8.644531 15.8125 C 8.492188 15.664062 8.410156 15.480469 8.410156 15.265625 C 8.40625 15.050781 8.480469 14.863281 8.628906 14.710938 C 8.78125 14.554688 8.964844 14.476562 9.179688 14.476562 C 9.394531 14.472656 9.582031 14.550781 9.734375 14.703125 C 9.886719 14.855469 9.964844 15.039062 9.964844 15.253906 C 9.972656 15.46875 9.898438 15.652344 9.75 15.804688 C 9.601562 15.957031 9.417969 16.035156 9.203125 16.03125 M 22.941406 12.613281 L 23.03125 12.671875 C 23.34375 12.871094 23.382812 12.929688 23.382812 13.265625 L 23.382812 14.289062 L 23.363281 14.289062 C 23.140625 14.007812 22.847656 13.878906 22.488281 13.894531 C 21.75 13.894531 21.238281 14.488281 21.238281 15.253906 C 21.238281 16.023438 21.714844 16.617188 22.511719 16.617188 C 22.894531 16.636719 23.191406 16.488281 23.398438 16.164062 L 23.410156 16.164062 L 23.480469 16.554688 L 24.027344 16.554688 L 24.027344 12.566406 L 22.941406 12.566406 Z M 22.640625 16.03125 C 22.425781 16.035156 22.238281 15.964844 22.085938 15.8125 C 21.929688 15.664062 21.847656 15.480469 21.847656 15.265625 C 21.84375 15.050781 21.917969 14.863281 22.066406 14.710938 C 22.21875 14.554688 22.402344 14.476562 22.617188 14.476562 C 22.832031 14.472656 23.019531 14.550781 23.171875 14.703125 C 23.324219 14.855469 23.402344 15.039062 23.402344 15.253906 C 23.410156 15.46875 23.335938 15.652344 23.1875 15.804688 C 23.039062 15.957031 22.855469 16.035156 22.640625 16.03125 M 29.097656 13.929688 L 29.097656 14.554688 C 28.992188 14.527344 28.890625 14.507812 28.785156 14.507812 C 28.59375 14.492188 28.433594 14.550781 28.292969 14.679688 C 28.15625 14.8125 28.085938 14.96875 28.089844 15.160156 L 28.089844 16.546875 L 27.441406 16.546875 L 27.441406 14.636719 C 27.441406 14.308594 27.425781 14.261719 27.160156 14.09375 L 27 13.988281 L 27 13.957031 L 28.089844 13.957031 L 28.089844 14.371094 L 28.101562 14.371094 C 28.253906 14.046875 28.507812 13.886719 28.867188 13.894531 C 28.945312 13.898438 29.023438 13.910156 29.097656 13.933594 M 14.734375 13.949219 L 15.335938 13.949219 L 15.335938 14.5 L 14.734375 14.5 L 14.734375 16.550781 L 14.085938 16.550781 L 14.085938 14.722656 C 14.085938 14.507812 14.042969 14.460938 13.789062 14.253906 L 13.457031 13.988281 L 13.457031 13.949219 L 14.085938 13.949219 L 14.085938 13.476562 C 14.085938 12.773438 14.546875 12.324219 15.535156 12.523438 L 15.6875 13.074219 L 15.65625 13.097656 C 15.136719 12.894531 14.734375 13.023438 14.734375 13.476562 Z M 20.863281 14.914062 L 20.863281 16.550781 L 20.214844 16.550781 L 20.214844 15.109375 C 20.214844 14.824219 20.140625 14.476562 19.691406 14.476562 C 19.265625 14.476562 19.097656 14.792969 19.097656 15.136719 L 19.097656 16.550781 L 18.453125 16.550781 L 18.453125 14.636719 C 18.453125 14.308594 18.433594 14.257812 18.171875 14.09375 L 18.015625 13.984375 L 18.015625 13.957031 L 19.070312 13.957031 L 19.070312 14.351562 L 19.082031 14.351562 C 19.273438 14.050781 19.550781 13.898438 19.90625 13.894531 C 20.515625 13.894531 20.871094 14.3125 20.871094 14.914062 M 7.597656 16.03125 L 7.617188 16.042969 C 7.617188 16.042969 7.296875 16.558594 7.296875 16.558594 C 6.773438 16.703125 6.175781 16.550781 6.175781 15.703125 L 6.175781 14.652344 C 6.175781 14.484375 6.148438 14.492188 5.785156 14.195312 L 5.550781 13.988281 L 5.550781 13.960938 L 6.179688 13.960938 L 6.417969 13.207031 L 6.828125 13.207031 L 6.828125 13.960938 L 7.519531 13.960938 L 7.519531 14.507812 L 6.828125 14.507812 L 6.828125 15.683594 C 6.828125 16.152344 7.148438 16.164062 7.597656 16.03125 " fill-opacity="1" fill-rule="nonzero"/></g></svg>