<svg xmlns="http://www.w3.org/2000/svg" xmlns:xlink="http://www.w3.org/1999/xlink" width="40" zoomAndPan="magnify" viewBox="0 0 30 30.000001" height="40" preserveAspectRatio="xMidYMid meet" version="1.0"><defs><clipPath id="f538c35c33"><path d="M 0.484375 11 L 6 11 L 6 19.503906 L 0.484375 19.503906 Z M 0.484375 11 " clip-rule="nonzero"/></clipPath><clipPath id="c992db5884"><path d="M 6 14 L 10 14 L 10 19.503906 L 6 19.503906 Z M 6 14 " clip-rule="nonzero"/></clipPath><clipPath id="74b19c7631"><path d="M 10 14 L 15 14 L 15 19.503906 L 10 19.503906 Z M 10 14 " clip-rule="nonzero"/></clipPath><clipPath id="421dd43920"><path d="M 15 14 L 21 14 L 21 19.503906 L 15 19.503906 Z M 15 14 " clip-rule="nonzero"/></clipPath><clipPath id="c6d2070935"><path d="M 20 14 L 25 14 L 25 19.503906 L 20 19.503906 Z M 20 14 " clip-rule="nonzero"/></clipPath><clipPath id="97a7eb2ee7"><path d="M 23 9.34375 L 29.515625 9.34375 L 29.515625 16 L 23 16 Z M 23 9.34375 " clip-rule="nonzero"/></clipPath></defs><g clip-path="url(#f538c35c33)"><path fill="#ffffff" d="M 2.925781 15.015625 C 2.101562 15.015625 1.78125 15.53125 1.78125 16.863281 C 1.78125 18.195312 2.066406 18.78125 2.792969 18.78125 C 3.246094 18.769531 3.636719 18.609375 3.960938 18.289062 L 3.960938 15.289062 C 3.636719 15.113281 3.289062 15.023438 2.917969 15.023438 Z M 4.53125 19.625 C 4.421875 19.625 4.363281 19.535156 4.292969 19.410156 C 4.234375 19.292969 4.191406 19.167969 4.164062 19.035156 C 3.664062 19.441406 3.089844 19.652344 2.449219 19.667969 C 1.257812 19.667969 0.542969 18.65625 0.542969 16.96875 C 0.542969 15.914062 0.78125 15.210938 1.257812 14.71875 C 1.660156 14.304688 2.148438 14.105469 2.726562 14.117188 C 3.167969 14.121094 3.578125 14.230469 3.964844 14.449219 L 3.964844 12.09375 C 3.964844 11.984375 3.988281 11.941406 4.097656 11.921875 L 4.957031 11.761719 C 4.996094 11.75 5.035156 11.746094 5.078125 11.75 C 5.148438 11.75 5.171875 11.78125 5.171875 11.898438 L 5.171875 17.972656 C 5.125 18.34375 5.195312 18.691406 5.390625 19.011719 C 5.425781 19.070312 5.484375 19.128906 5.484375 19.183594 C 5.484375 19.238281 5.472656 19.238281 5.414062 19.257812 L 4.648438 19.578125 C 4.613281 19.597656 4.578125 19.601562 4.539062 19.597656 Z M 4.53125 19.625 " fill-opacity="1" fill-rule="nonzero"/></g><g clip-path="url(#c992db5884)"><path fill="#ffffff" d="M 9.167969 15.214844 L 9.144531 15.214844 C 9 15.164062 8.851562 15.136719 8.699219 15.128906 C 8.425781 15.128906 8.128906 15.289062 7.648438 15.785156 L 7.648438 19.355469 C 7.648438 19.492188 7.636719 19.507812 7.480469 19.507812 L 6.625 19.507812 C 6.484375 19.507812 6.445312 19.484375 6.445312 19.355469 L 6.445312 16.109375 C 6.484375 15.640625 6.40625 15.195312 6.210938 14.769531 C 6.171875 14.707031 6.101562 14.617188 6.101562 14.554688 C 6.101562 14.492188 6.113281 14.480469 6.183594 14.445312 L 6.914062 14.144531 C 6.949219 14.132812 6.984375 14.125 7.019531 14.125 C 7.175781 14.125 7.226562 14.304688 7.304688 14.46875 C 7.390625 14.628906 7.453125 14.800781 7.488281 14.980469 C 7.914062 14.542969 8.285156 14.113281 8.976562 14.113281 C 9.175781 14.109375 9.359375 14.148438 9.539062 14.230469 C 9.597656 14.265625 9.621094 14.289062 9.621094 14.339844 C 9.621094 14.367188 9.609375 14.398438 9.597656 14.425781 L 9.289062 15.109375 C 9.242188 15.199219 9.21875 15.21875 9.171875 15.21875 Z M 9.167969 15.214844 " fill-opacity="1" fill-rule="nonzero"/></g><g clip-path="url(#74b19c7631)"><path fill="#ffffff" d="M 14.757812 19.257812 C 14.757812 19.289062 14.734375 19.316406 14.675781 19.34375 L 13.910156 19.601562 C 13.878906 19.613281 13.847656 19.621094 13.816406 19.621094 C 13.707031 19.621094 13.648438 19.546875 13.589844 19.453125 C 13.511719 19.3125 13.453125 19.164062 13.410156 19.011719 C 12.925781 19.445312 12.359375 19.65625 11.707031 19.640625 C 10.398438 19.640625 10.007812 18.96875 10.007812 17.886719 L 10.007812 14.464844 C 10.007812 14.355469 10.042969 14.328125 10.160156 14.300781 L 10.996094 14.121094 C 11.03125 14.113281 11.066406 14.109375 11.105469 14.109375 C 11.175781 14.109375 11.226562 14.144531 11.226562 14.25 L 11.226562 17.632812 C 11.226562 18.457031 11.417969 18.738281 12.011719 18.738281 C 12.480469 18.722656 12.890625 18.566406 13.25 18.269531 L 13.25 14.46875 C 13.25 14.359375 13.289062 14.332031 13.40625 14.308594 L 14.242188 14.125 C 14.28125 14.117188 14.320312 14.109375 14.363281 14.105469 C 14.421875 14.105469 14.457031 14.140625 14.457031 14.257812 L 14.457031 18.09375 C 14.421875 18.480469 14.511719 18.835938 14.71875 19.164062 C 14.746094 19.191406 14.761719 19.222656 14.765625 19.257812 Z M 14.757812 19.257812 " fill-opacity="1" fill-rule="nonzero"/></g><g clip-path="url(#421dd43920)"><path fill="#ffffff" d="M 17.945312 19.617188 L 17.230469 19.617188 C 17.109375 19.617188 17.097656 19.617188 17.050781 19.5 L 15.070312 14.523438 C 15.050781 14.480469 15.039062 14.4375 15.035156 14.394531 C 15.035156 14.351562 15.070312 14.320312 15.179688 14.304688 L 16.089844 14.179688 L 16.148438 14.179688 C 16.230469 14.179688 16.269531 14.214844 16.300781 14.296875 L 17.332031 17.265625 C 17.453125 17.636719 17.554688 18.011719 17.640625 18.390625 C 17.722656 18.011719 17.832031 17.640625 17.964844 17.273438 L 19.082031 14.296875 C 19.117188 14.210938 19.152344 14.179688 19.226562 14.179688 C 19.296875 14.179688 19.285156 14.195312 19.332031 14.195312 L 20.097656 14.320312 C 20.191406 14.34375 20.230469 14.363281 20.230469 14.410156 C 20.222656 14.453125 20.210938 14.496094 20.191406 14.539062 L 18.140625 19.503906 C 18.105469 19.597656 18.082031 19.621094 17.949219 19.621094 Z M 17.945312 19.617188 " fill-opacity="1" fill-rule="nonzero"/></g><g clip-path="url(#c6d2070935)"><path fill="#ffffff" d="M 21.433594 17.992188 C 21.425781 18.210938 21.5 18.398438 21.648438 18.554688 C 21.796875 18.714844 21.980469 18.792969 22.199219 18.800781 L 22.242188 18.800781 C 22.683594 18.773438 23.0625 18.601562 23.371094 18.285156 L 23.371094 17.011719 C 22.621094 17.023438 21.429688 17.066406 21.429688 17.996094 Z M 24.867188 19.195312 C 24.867188 19.234375 24.847656 19.261719 24.808594 19.269531 L 24.078125 19.59375 C 24.042969 19.613281 24.003906 19.621094 23.960938 19.625 C 23.875 19.625 23.816406 19.566406 23.753906 19.453125 C 23.667969 19.304688 23.597656 19.140625 23.550781 18.972656 C 23.109375 19.417969 22.574219 19.632812 21.945312 19.617188 C 20.917969 19.617188 20.257812 19.015625 20.257812 18.070312 C 20.257812 16.464844 21.96875 16.238281 23.382812 16.226562 L 23.382812 15.886719 C 23.382812 15.230469 23.148438 14.996094 22.441406 14.996094 C 21.960938 15.011719 21.5 15.113281 21.0625 15.304688 C 21.027344 15.320312 20.992188 15.324219 20.953125 15.328125 C 20.898438 15.328125 20.863281 15.304688 20.847656 15.253906 L 20.660156 14.726562 C 20.644531 14.699219 20.636719 14.664062 20.636719 14.632812 C 20.636719 14.492188 20.78125 14.453125 20.871094 14.417969 C 21.421875 14.210938 21.992188 14.105469 22.578125 14.105469 C 23.890625 14.105469 24.546875 14.589844 24.546875 15.726562 L 24.546875 17.824219 C 24.511719 18.273438 24.605469 18.695312 24.832031 19.085938 C 24.847656 19.121094 24.859375 19.15625 24.867188 19.195312 Z M 24.867188 19.195312 " fill-opacity="1" fill-rule="nonzero"/></g><g clip-path="url(#97a7eb2ee7)"><path fill="#ffffff" d="M 27.265625 11.402344 L 27.386719 11.59375 C 27.527344 11.820312 27.636719 12.0625 27.710938 12.316406 C 27.757812 12.492188 27.789062 12.671875 27.800781 12.855469 C 27.804688 12.949219 27.804688 13.042969 27.800781 13.136719 C 27.773438 13.507812 27.722656 13.878906 27.648438 14.242188 C 27.742188 14.191406 27.832031 14.148438 27.921875 14.097656 C 28.109375 13.984375 28.285156 13.855469 28.449219 13.710938 C 28.601562 13.5625 28.742188 13.40625 28.867188 13.230469 C 29.003906 13.03125 29.121094 12.820312 29.210938 12.59375 C 29.292969 12.417969 29.359375 12.234375 29.417969 12.046875 C 29.425781 12.027344 29.433594 12.003906 29.4375 11.984375 C 28.773438 11.5625 28.050781 11.367188 27.265625 11.398438 Z M 24.609375 13.242188 C 24.609375 13.253906 24.609375 13.261719 24.613281 13.269531 C 24.648438 13.355469 24.679688 13.441406 24.71875 13.523438 C 24.816406 13.714844 24.929688 13.894531 25.066406 14.058594 C 25.179688 14.195312 25.304688 14.320312 25.4375 14.4375 L 25.53125 14.507812 C 25.730469 14.648438 25.9375 14.765625 26.15625 14.859375 C 26.304688 14.925781 26.457031 14.988281 26.605469 15.039062 C 26.726562 15.085938 26.847656 15.128906 26.972656 15.160156 C 26.988281 15.136719 27.003906 15.113281 27.015625 15.089844 L 27.148438 14.824219 C 27.238281 14.640625 27.3125 14.453125 27.375 14.257812 C 27.433594 14.070312 27.472656 13.882812 27.5 13.6875 C 27.515625 13.570312 27.53125 13.398438 27.535156 13.320312 C 27.542969 13.191406 27.535156 13.058594 27.535156 12.925781 L 27.535156 12.867188 C 26.308594 13.324219 25.417969 13.421875 24.601562 13.242188 Z M 23.648438 12.605469 L 23.808594 12.691406 C 23.941406 12.757812 24.074219 12.828125 24.210938 12.886719 C 24.292969 12.925781 24.378906 12.957031 24.464844 12.988281 C 24.726562 13.070312 24.996094 13.113281 25.269531 13.113281 C 25.351562 13.113281 25.433594 13.105469 25.515625 13.101562 C 25.648438 13.089844 25.78125 13.074219 25.910156 13.050781 L 25.851562 12.941406 C 25.816406 12.871094 25.785156 12.800781 25.75 12.730469 C 25.691406 12.597656 25.640625 12.464844 25.597656 12.328125 C 25.550781 12.183594 25.511719 12.039062 25.480469 11.890625 C 25.453125 11.761719 25.445312 11.628906 25.429688 11.5 C 25.421875 11.40625 25.421875 11.3125 25.425781 11.21875 C 25.429688 11.125 25.433594 11.03125 25.441406 10.9375 C 25.449219 10.847656 25.449219 10.835938 25.453125 10.785156 C 25.46875 10.667969 25.488281 10.554688 25.507812 10.441406 C 25.527344 10.328125 25.539062 10.289062 25.554688 10.214844 C 25.558594 10.195312 25.5625 10.179688 25.566406 10.152344 C 25.425781 10.230469 25.289062 10.3125 25.160156 10.40625 C 25.003906 10.515625 24.855469 10.640625 24.71875 10.777344 C 24.609375 10.878906 24.507812 10.988281 24.410156 11.101562 C 24.265625 11.277344 24.144531 11.46875 24.046875 11.671875 C 23.976562 11.808594 23.914062 11.945312 23.851562 12.082031 C 23.773438 12.253906 23.703125 12.425781 23.644531 12.605469 Z M 26.304688 9.363281 C 26.503906 9.429688 26.703125 9.5 26.894531 9.582031 C 27.144531 9.6875 27.378906 9.808594 27.605469 9.957031 C 27.726562 10.042969 27.84375 10.136719 27.945312 10.242188 C 28.125 10.421875 28.277344 10.621094 28.40625 10.835938 C 28.5 11 28.582031 11.167969 28.644531 11.339844 C 27.636719 11.058594 26.667969 11.171875 25.746094 11.671875 C 25.726562 11.511719 25.714844 11.351562 25.71875 11.191406 C 25.722656 11.074219 25.722656 10.960938 25.734375 10.847656 C 25.742188 10.730469 25.753906 10.613281 25.773438 10.496094 C 25.808594 10.324219 25.855469 10.160156 25.921875 10 C 25.976562 9.863281 26.035156 9.734375 26.101562 9.605469 C 26.148438 9.519531 26.203125 9.4375 26.25 9.347656 L 26.308594 9.363281 Z M 26.304688 9.363281 " fill-opacity="1" fill-rule="nonzero"/></g></svg>