<svg xmlns="http://www.w3.org/2000/svg" xmlns:xlink="http://www.w3.org/1999/xlink" width="40" zoomAndPan="magnify" viewBox="0 0 30 30.000001" height="40" preserveAspectRatio="xMidYMid meet" version="1.0"><defs><g/></defs><g fill="#ffffff" fill-opacity="1"><g transform="translate(0.755215, 16.935627)"><g><path d="M 3.1875 -4.359375 L 3.1875 -2.59375 L 1.34375 -2.59375 L 1.34375 -4.359375 L 0.4375 -4.359375 L 0.4375 0 L 1.34375 0 L 1.34375 -1.78125 L 3.1875 -1.78125 L 3.1875 0 L 4.09375 0 L 4.09375 -4.359375 Z M 3.1875 -4.359375 "/></g></g></g><g fill="#ffffff" fill-opacity="1"><g transform="translate(5.278738, 16.935627)"><g><path d="M 0.875 -3.4375 C 1 -3.4375 1.109375 -3.484375 1.21875 -3.59375 C 1.3125 -3.671875 1.359375 -3.796875 1.359375 -3.921875 C 1.359375 -4.0625 1.3125 -4.171875 1.21875 -4.265625 C 1.125 -4.359375 1 -4.421875 0.875 -4.421875 C 0.734375 -4.421875 0.625 -4.359375 0.53125 -4.265625 C 0.4375 -4.171875 0.390625 -4.0625 0.390625 -3.921875 C 0.390625 -3.796875 0.4375 -3.671875 0.53125 -3.59375 C 0.625 -3.484375 0.734375 -3.4375 0.875 -3.4375 Z M 0.4375 0 L 1.3125 0 L 1.3125 -2.90625 L 0.4375 -2.90625 Z M 0.4375 0 "/></g></g></g><g fill="#ffffff" fill-opacity="1"><g transform="translate(7.026597, 16.935627)"><g><path d="M 1.46875 0.0625 C 1.828125 0.0625 2.109375 -0.03125 2.296875 -0.203125 C 2.5 -0.390625 2.59375 -0.609375 2.59375 -0.90625 C 2.59375 -1.296875 2.3125 -1.59375 1.765625 -1.796875 C 1.734375 -1.796875 1.703125 -1.8125 1.65625 -1.828125 C 1.609375 -1.84375 1.578125 -1.84375 1.546875 -1.859375 C 1.53125 -1.859375 1.5 -1.875 1.453125 -1.890625 C 1.421875 -1.90625 1.390625 -1.90625 1.375 -1.921875 L 1.3125 -1.953125 C 1.28125 -1.96875 1.25 -1.984375 1.25 -2 C 1.234375 -2 1.21875 -2.015625 1.203125 -2.03125 C 1.1875 -2.046875 1.1875 -2.0625 1.171875 -2.078125 C 1.171875 -2.09375 1.171875 -2.109375 1.171875 -2.140625 C 1.171875 -2.28125 1.28125 -2.34375 1.53125 -2.328125 C 1.765625 -2.296875 1.953125 -2.21875 2.09375 -2.078125 L 2.5625 -2.609375 C 2.25 -2.84375 1.890625 -2.96875 1.484375 -2.96875 C 1.125 -2.96875 0.84375 -2.875 0.625 -2.703125 C 0.40625 -2.53125 0.296875 -2.3125 0.296875 -2.046875 C 0.296875 -1.65625 0.546875 -1.390625 1.03125 -1.21875 C 1.078125 -1.203125 1.140625 -1.171875 1.234375 -1.140625 C 1.3125 -1.109375 1.390625 -1.09375 1.4375 -1.078125 C 1.46875 -1.0625 1.515625 -1.046875 1.5625 -1.015625 C 1.609375 -1 1.65625 -0.96875 1.671875 -0.9375 C 1.703125 -0.90625 1.703125 -0.859375 1.703125 -0.828125 C 1.703125 -0.75 1.671875 -0.703125 1.59375 -0.65625 C 1.53125 -0.625 1.4375 -0.609375 1.3125 -0.625 C 1.0625 -0.640625 0.84375 -0.75 0.65625 -0.921875 L 0.1875 -0.34375 C 0.515625 -0.0625 0.953125 0.0625 1.46875 0.0625 Z M 1.46875 0.0625 "/></g></g></g><g fill="#ffffff" fill-opacity="1"><g transform="translate(9.796458, 16.935627)"><g><path d="M 2.171875 -2.96875 C 1.84375 -2.96875 1.546875 -2.859375 1.3125 -2.640625 L 1.3125 -2.90625 L 0.4375 -2.90625 L 0.4375 1.453125 L 1.3125 1.453125 L 1.3125 -0.265625 C 1.546875 -0.046875 1.84375 0.0625 2.171875 0.0625 C 2.578125 0.0625 2.90625 -0.09375 3.1875 -0.390625 C 3.46875 -0.671875 3.609375 -1.03125 3.609375 -1.453125 C 3.609375 -1.875 3.46875 -2.21875 3.1875 -2.515625 C 2.90625 -2.8125 2.578125 -2.96875 2.171875 -2.96875 Z M 2 -0.71875 C 1.796875 -0.71875 1.609375 -0.796875 1.46875 -0.9375 C 1.34375 -1.078125 1.265625 -1.25 1.265625 -1.453125 C 1.265625 -1.65625 1.34375 -1.828125 1.484375 -1.96875 C 1.625 -2.109375 1.796875 -2.1875 2 -2.1875 C 2.203125 -2.1875 2.375 -2.109375 2.515625 -1.96875 C 2.65625 -1.828125 2.71875 -1.65625 2.71875 -1.453125 C 2.71875 -1.25 2.65625 -1.078125 2.515625 -0.9375 C 2.375 -0.796875 2.203125 -0.71875 2 -0.71875 Z M 2 -0.71875 "/></g></g></g><g fill="#ffffff" fill-opacity="1"><g transform="translate(13.634773, 16.935627)"><g><path d="M 2.53125 -2.90625 L 2.53125 -2.609375 C 2.3125 -2.84375 2.03125 -2.96875 1.65625 -2.96875 C 1.265625 -2.96875 0.9375 -2.8125 0.65625 -2.515625 C 0.375 -2.21875 0.234375 -1.875 0.234375 -1.453125 C 0.234375 -1.03125 0.375 -0.671875 0.65625 -0.390625 C 0.9375 -0.09375 1.265625 0.0625 1.65625 0.0625 C 2.03125 0.0625 2.3125 -0.0625 2.53125 -0.296875 L 2.53125 0 L 3.40625 0 L 3.40625 -2.90625 Z M 1.84375 -0.71875 C 1.640625 -0.71875 1.46875 -0.796875 1.328125 -0.9375 C 1.1875 -1.078125 1.109375 -1.25 1.109375 -1.453125 C 1.109375 -1.65625 1.1875 -1.828125 1.328125 -1.96875 C 1.46875 -2.109375 1.640625 -2.1875 1.84375 -2.1875 C 2.046875 -2.1875 2.21875 -2.109375 2.359375 -1.96875 C 2.5 -1.828125 2.578125 -1.65625 2.578125 -1.453125 C 2.578125 -1.25 2.5 -1.078125 2.359375 -0.9375 C 2.21875 -0.796875 2.046875 -0.71875 1.84375 -0.71875 Z M 1.84375 -0.71875 "/></g></g></g><g fill="#ffffff" fill-opacity="1"><g transform="translate(17.479984, 16.935627)"><g><path d="M 1.25 0.0625 C 1.5 0.0625 1.71875 -0.015625 1.890625 -0.171875 C 2.0625 -0.328125 2.15625 -0.515625 2.15625 -0.765625 C 2.15625 -0.890625 2.140625 -1 2.09375 -1.09375 C 2.046875 -1.1875 1.96875 -1.265625 1.890625 -1.34375 C 1.796875 -1.40625 1.703125 -1.46875 1.640625 -1.5 C 1.5625 -1.53125 1.46875 -1.578125 1.34375 -1.640625 C 1.21875 -1.6875 1.140625 -1.71875 1.09375 -1.75 C 1.046875 -1.765625 0.984375 -1.796875 0.921875 -1.84375 C 0.859375 -1.890625 0.828125 -1.9375 0.796875 -1.984375 C 0.78125 -2.03125 0.765625 -2.09375 0.765625 -2.171875 C 0.765625 -2.3125 0.8125 -2.421875 0.90625 -2.5 C 0.984375 -2.5625 1.09375 -2.609375 1.234375 -2.609375 C 1.453125 -2.609375 1.609375 -2.515625 1.703125 -2.34375 L 2.03125 -2.515625 C 1.96875 -2.640625 1.859375 -2.75 1.71875 -2.84375 C 1.578125 -2.921875 1.421875 -2.96875 1.25 -2.96875 C 1.015625 -2.96875 0.8125 -2.890625 0.640625 -2.75 C 0.46875 -2.609375 0.390625 -2.40625 0.390625 -2.15625 C 0.390625 -1.9375 0.453125 -1.765625 0.59375 -1.640625 C 0.71875 -1.5 0.921875 -1.390625 1.203125 -1.28125 C 1.40625 -1.203125 1.546875 -1.125 1.640625 -1.046875 C 1.71875 -0.984375 1.765625 -0.890625 1.765625 -0.765625 C 1.765625 -0.625 1.71875 -0.5 1.625 -0.421875 C 1.515625 -0.328125 1.390625 -0.296875 1.21875 -0.296875 C 0.9375 -0.296875 0.71875 -0.421875 0.609375 -0.671875 L 0.25 -0.5625 C 0.296875 -0.390625 0.421875 -0.234375 0.609375 -0.125 C 0.8125 0 1.015625 0.0625 1.25 0.0625 Z M 1.25 0.0625 "/></g></g></g><g fill="#ffffff" fill-opacity="1"><g transform="translate(19.866593, 16.935627)"><g><path d="M 3.34375 -1.484375 C 3.328125 -1.90625 3.171875 -2.25 2.890625 -2.546875 C 2.59375 -2.8125 2.25 -2.96875 1.84375 -2.96875 C 1.421875 -2.96875 1.0625 -2.8125 0.765625 -2.515625 C 0.46875 -2.21875 0.328125 -1.875 0.328125 -1.453125 C 0.328125 -1.03125 0.46875 -0.671875 0.765625 -0.390625 C 1.0625 -0.09375 1.421875 0.0625 1.84375 0.0625 C 2.109375 0.0625 2.359375 0 2.578125 -0.140625 C 2.8125 -0.265625 2.984375 -0.453125 3.125 -0.671875 L 2.765625 -0.828125 C 2.671875 -0.65625 2.53125 -0.546875 2.359375 -0.453125 C 2.203125 -0.359375 2.015625 -0.3125 1.84375 -0.3125 C 1.53125 -0.3125 1.265625 -0.421875 1.046875 -0.640625 C 0.828125 -0.84375 0.71875 -1.09375 0.703125 -1.40625 L 3.34375 -1.40625 Z M 1.84375 -2.59375 C 2.09375 -2.59375 2.328125 -2.5 2.515625 -2.34375 C 2.71875 -2.1875 2.84375 -2 2.921875 -1.75 L 0.75 -1.75 C 0.8125 -2 0.953125 -2.203125 1.15625 -2.359375 C 1.34375 -2.5 1.578125 -2.59375 1.84375 -2.59375 Z M 1.84375 -2.59375 "/></g></g></g><g fill="#ffffff" fill-opacity="1"><g transform="translate(23.536515, 16.935627)"><g><path d="M 1.84375 0.0625 C 2.140625 0.0625 2.40625 -0.015625 2.65625 -0.171875 C 2.890625 -0.328125 3.078125 -0.546875 3.203125 -0.796875 L 2.859375 -0.96875 C 2.765625 -0.765625 2.625 -0.609375 2.4375 -0.5 C 2.265625 -0.375 2.0625 -0.3125 1.84375 -0.3125 C 1.515625 -0.3125 1.25 -0.421875 1.03125 -0.640625 C 0.8125 -0.859375 0.703125 -1.140625 0.703125 -1.453125 C 0.703125 -1.765625 0.8125 -2.03125 1.03125 -2.25 C 1.25 -2.46875 1.515625 -2.59375 1.84375 -2.59375 C 2.0625 -2.59375 2.265625 -2.515625 2.4375 -2.40625 C 2.625 -2.296875 2.765625 -2.140625 2.859375 -1.9375 L 3.203125 -2.109375 C 3.078125 -2.359375 2.890625 -2.5625 2.65625 -2.71875 C 2.40625 -2.890625 2.140625 -2.96875 1.84375 -2.96875 C 1.421875 -2.96875 1.0625 -2.8125 0.765625 -2.515625 C 0.46875 -2.21875 0.328125 -1.875 0.328125 -1.453125 C 0.328125 -1.03125 0.46875 -0.671875 0.765625 -0.390625 C 1.0625 -0.09375 1.421875 0.0625 1.84375 0.0625 Z M 1.84375 0.0625 "/></g></g></g><g fill="#ffffff" fill-opacity="1"><g transform="translate(26.953825, 16.935627)"><g><path d="M 0.34375 1.453125 L 1.84375 1.453125 L 1.84375 -5 L 0.34375 -5 L 0.34375 -4.375 L 1.09375 -4.375 L 1.09375 0.84375 L 0.34375 0.84375 Z M 0.34375 1.453125 "/></g></g></g></svg>