<svg xmlns="http://www.w3.org/2000/svg" xmlns:xlink="http://www.w3.org/1999/xlink" width="40" zoomAndPan="magnify" viewBox="0 0 30 30.000001" height="40" preserveAspectRatio="xMidYMid meet" version="1.0"><path fill="#ffffff" d="M 4.335938 17.570312 C 4.488281 17.421875 4.640625 17.277344 4.785156 17.128906 C 4.996094 16.914062 5.207031 16.695312 5.414062 16.476562 C 5.613281 16.265625 5.808594 16.050781 6.007812 15.835938 C 6.171875 15.664062 6.339844 15.492188 6.507812 15.316406 C 6.601562 15.21875 6.6875 15.113281 6.785156 15.019531 C 7.027344 14.796875 7.273438 14.578125 7.515625 14.355469 C 7.792969 14.109375 8.085938 13.878906 8.394531 13.671875 C 8.566406 13.558594 8.742188 13.449219 8.921875 13.351562 C 9.296875 13.136719 9.6875 12.964844 10.097656 12.832031 C 10.40625 12.734375 10.71875 12.660156 11.035156 12.605469 C 11.230469 12.574219 11.425781 12.558594 11.621094 12.539062 C 11.945312 12.507812 12.269531 12.503906 12.597656 12.523438 C 12.84375 12.53125 13.089844 12.558594 13.332031 12.605469 C 13.539062 12.644531 13.746094 12.664062 13.949219 12.707031 C 14.304688 12.769531 14.652344 12.863281 14.992188 12.988281 C 15.289062 13.105469 15.5625 13.261719 15.8125 13.464844 C 15.910156 13.542969 16.007812 13.625 16.117188 13.714844 L 16.15625 13.582031 C 16.246094 13.277344 16.390625 12.996094 16.589844 12.742188 C 16.761719 12.523438 16.972656 12.351562 17.222656 12.222656 C 17.445312 12.109375 17.679688 12.035156 17.925781 12.003906 C 18.082031 11.984375 18.234375 11.976562 18.390625 11.984375 C 18.753906 11.988281 19.105469 12.066406 19.4375 12.210938 C 19.679688 12.316406 19.898438 12.457031 20.09375 12.632812 L 20.1875 12.585938 C 20.1875 12.472656 20.183594 12.363281 20.1875 12.257812 C 20.183594 11.953125 20.289062 11.695312 20.492188 11.476562 C 20.5 11.46875 20.507812 11.457031 20.511719 11.449219 C 20.492188 11.421875 20.46875 11.390625 20.449219 11.359375 C 20.253906 11.070312 20.058594 10.785156 19.863281 10.496094 C 19.503906 9.96875 19.101562 9.476562 18.65625 9.023438 C 18.40625 8.777344 18.125 8.574219 17.8125 8.414062 C 17.542969 8.277344 17.253906 8.183594 16.953125 8.140625 C 16.78125 8.113281 16.609375 8.105469 16.433594 8.089844 C 16.164062 8.0625 15.894531 8.074219 15.621094 8.074219 C 12.816406 8.070312 10.011719 8.074219 7.207031 8.074219 C 7.019531 8.074219 6.859375 8.011719 6.726562 7.878906 C 6.664062 7.839844 6.636719 7.785156 6.648438 7.714844 C 6.683594 7.667969 6.726562 7.648438 6.785156 7.652344 C 6.816406 7.652344 6.847656 7.652344 6.878906 7.652344 C 10.003906 7.652344 13.132812 7.652344 16.261719 7.652344 C 16.5 7.660156 16.738281 7.679688 16.976562 7.714844 C 17.324219 7.765625 17.65625 7.867188 17.972656 8.015625 C 18.175781 8.113281 18.363281 8.234375 18.542969 8.375 C 18.800781 8.570312 19.035156 8.789062 19.246094 9.035156 C 19.53125 9.363281 19.8125 9.699219 20.074219 10.046875 C 20.320312 10.371094 20.539062 10.714844 20.769531 11.050781 L 20.851562 11.167969 C 20.882812 11.15625 20.910156 11.144531 20.9375 11.128906 C 21.113281 11.039062 21.300781 10.980469 21.5 10.953125 C 21.855469 10.910156 22.199219 10.957031 22.53125 11.097656 C 22.972656 11.273438 23.382812 11.511719 23.753906 11.808594 C 23.933594 11.941406 24.101562 12.09375 24.269531 12.242188 C 24.617188 12.5625 24.921875 12.925781 25.179688 13.324219 C 25.484375 13.792969 25.6875 14.304688 25.789062 14.855469 C 25.832031 15.085938 25.84375 15.316406 25.824219 15.550781 C 25.792969 16.007812 25.632812 16.414062 25.339844 16.769531 C 25.25 16.882812 25.144531 16.988281 25.027344 17.078125 C 25.003906 17.089844 24.980469 17.101562 24.957031 17.109375 L 24.867188 16.734375 C 24.699219 16.65625 24.523438 16.582031 24.355469 16.5 C 24.070312 16.359375 23.78125 16.21875 23.5 16.070312 C 23.261719 15.945312 23.027344 15.808594 22.796875 15.667969 C 22.453125 15.460938 22.128906 15.230469 21.820312 14.976562 C 21.703125 14.875 21.585938 14.773438 21.46875 14.671875 C 21.414062 14.613281 21.347656 14.59375 21.273438 14.609375 C 21.195312 14.621094 21.140625 14.664062 21.105469 14.734375 C 21.070312 14.800781 21.039062 14.875 21.011719 14.945312 C 20.910156 15.195312 20.773438 15.421875 20.605469 15.632812 C 20.445312 15.828125 20.261719 16 20.050781 16.140625 C 19.769531 16.320312 19.464844 16.4375 19.140625 16.5 C 18.84375 16.558594 18.546875 16.570312 18.246094 16.539062 C 17.707031 16.496094 17.210938 16.320312 16.765625 16.011719 C 16.714844 15.972656 16.664062 15.925781 16.609375 15.878906 C 16.5625 15.902344 16.519531 15.929688 16.472656 15.957031 C 16.136719 16.152344 15.777344 16.296875 15.394531 16.378906 C 15.203125 16.421875 15.007812 16.457031 14.8125 16.476562 C 14.460938 16.519531 14.109375 16.535156 13.757812 16.519531 C 13.539062 16.511719 13.320312 16.480469 13.101562 16.457031 C 12.90625 16.433594 12.710938 16.40625 12.515625 16.378906 C 12.324219 16.355469 12.132812 16.320312 11.941406 16.296875 C 11.851562 16.28125 11.757812 16.277344 11.664062 16.265625 C 11.558594 16.253906 11.449219 16.238281 11.34375 16.226562 C 11.234375 16.214844 11.128906 16.207031 11.019531 16.195312 C 10.589844 16.167969 10.160156 16.160156 9.726562 16.171875 C 9.515625 16.179688 9.304688 16.199219 9.09375 16.21875 C 8.914062 16.230469 8.738281 16.246094 8.5625 16.265625 C 8.398438 16.285156 8.230469 16.308594 8.070312 16.339844 C 7.734375 16.402344 7.402344 16.46875 7.070312 16.546875 C 6.796875 16.613281 6.527344 16.695312 6.257812 16.777344 C 5.707031 16.949219 5.175781 17.164062 4.667969 17.429688 C 4.5625 17.480469 4.460938 17.539062 4.359375 17.59375 Z M 24.003906 14.148438 C 24.128906 14.160156 24.25 14.140625 24.367188 14.101562 C 24.628906 14.019531 24.75 13.839844 24.734375 13.570312 C 24.722656 13.441406 24.683594 13.320312 24.621094 13.207031 C 24.46875 12.933594 24.28125 12.691406 24.050781 12.480469 C 23.914062 12.347656 23.765625 12.234375 23.617188 12.109375 C 23.414062 11.9375 23.1875 11.792969 22.941406 11.683594 C 22.675781 11.542969 22.390625 11.496094 22.089844 11.539062 C 21.941406 11.5625 21.820312 11.632812 21.722656 11.742188 C 21.625 11.855469 21.570312 11.984375 21.5625 12.132812 C 21.5625 12.285156 21.597656 12.433594 21.660156 12.570312 C 21.835938 12.949219 22.085938 13.261719 22.417969 13.511719 C 22.664062 13.710938 22.933594 13.867188 23.226562 13.988281 C 23.472656 14.097656 23.730469 14.152344 24.003906 14.148438 Z M 24.003906 14.148438 " fill-opacity="1" fill-rule="nonzero"/><path fill="#ffffff" d="M 19.734375 11.40625 C 19.589844 11.34375 19.445312 11.277344 19.296875 11.222656 C 19.085938 11.15625 18.871094 11.113281 18.652344 11.09375 C 18.492188 11.078125 18.332031 11.070312 18.175781 11.074219 C 17.949219 11.078125 17.726562 11.097656 17.507812 11.136719 C 17.101562 11.203125 16.703125 11.304688 16.316406 11.445312 C 16.070312 11.53125 15.824219 11.628906 15.574219 11.710938 C 15.25 11.816406 14.921875 11.898438 14.585938 11.957031 C 14.402344 11.992188 14.21875 12.023438 14.035156 12.046875 C 13.851562 12.070312 13.667969 12.082031 13.480469 12.101562 C 13.125 12.140625 12.765625 12.152344 12.402344 12.140625 C 12.21875 12.136719 12.035156 12.117188 11.847656 12.101562 C 11.644531 12.078125 11.441406 12.058594 11.238281 12.027344 C 10.828125 11.964844 10.429688 11.851562 10.046875 11.691406 C 9.808594 11.585938 9.582031 11.460938 9.371094 11.3125 C 8.707031 10.882812 8.042969 10.453125 7.386719 10.011719 C 6.996094 9.753906 6.617188 9.476562 6.238281 9.203125 C 6.140625 9.136719 6.050781 9.054688 5.957031 8.976562 C 5.929688 8.953125 5.910156 8.925781 5.890625 8.898438 C 5.851562 8.835938 5.847656 8.773438 5.878906 8.710938 C 5.914062 8.644531 5.964844 8.613281 6.039062 8.609375 C 6.066406 8.609375 6.09375 8.605469 6.121094 8.609375 C 9.1875 8.609375 12.257812 8.609375 15.328125 8.609375 C 15.527344 8.609375 15.726562 8.636719 15.929688 8.652344 C 16.304688 8.679688 16.671875 8.757812 17.027344 8.878906 C 17.40625 9.007812 17.746094 9.199219 18.050781 9.460938 C 18.308594 9.683594 18.542969 9.929688 18.75 10.203125 C 18.957031 10.46875 19.164062 10.734375 19.378906 10.996094 C 19.472656 11.113281 19.582031 11.21875 19.683594 11.328125 C 19.703125 11.351562 19.722656 11.375 19.746094 11.398438 Z M 19.734375 11.40625 " fill-opacity="1" fill-rule="nonzero"/><path fill="#ffffff" d="M 6.972656 20.695312 L 7.574219 21.214844 L 7.136719 21.214844 L 6.523438 20.683594 L 6.324219 20.683594 L 6.324219 20.417969 C 6.355469 20.414062 6.382812 20.410156 6.414062 20.410156 C 6.589844 20.40625 6.761719 20.410156 6.9375 20.40625 C 6.984375 20.40625 7.03125 20.398438 7.074219 20.386719 C 7.1875 20.355469 7.246094 20.28125 7.246094 20.164062 C 7.253906 20.082031 7.25 20 7.25 19.910156 C 7.21875 19.894531 7.183594 19.882812 7.152344 19.878906 C 6.832031 19.875 6.515625 19.875 6.1875 19.875 C 6.175781 20.027344 6.183594 20.175781 6.179688 20.320312 C 6.179688 20.472656 6.179688 20.621094 6.179688 20.773438 L 6.179688 21.21875 L 5.910156 21.21875 C 5.90625 21.191406 5.902344 21.167969 5.902344 21.140625 C 5.902344 20.695312 5.902344 20.25 5.902344 19.804688 C 5.898438 19.777344 5.902344 19.75 5.90625 19.722656 C 5.914062 19.648438 5.957031 19.609375 6.03125 19.605469 C 6.046875 19.601562 6.0625 19.601562 6.078125 19.601562 C 6.4375 19.601562 6.800781 19.601562 7.160156 19.601562 C 7.265625 19.59375 7.351562 19.628906 7.425781 19.703125 C 7.5 19.777344 7.53125 19.863281 7.527344 19.964844 C 7.527344 20.066406 7.523438 20.167969 7.511719 20.265625 C 7.476562 20.484375 7.351562 20.617188 7.132812 20.664062 C 7.085938 20.675781 7.035156 20.683594 6.972656 20.695312 Z M 6.972656 20.695312 " fill-opacity="1" fill-rule="nonzero"/><path fill="#ffffff" d="M 23.171875 20.695312 L 23.769531 21.214844 L 23.335938 21.214844 L 22.722656 20.683594 L 22.527344 20.683594 L 22.527344 20.417969 C 22.550781 20.414062 22.574219 20.410156 22.597656 20.410156 C 22.777344 20.40625 22.957031 20.410156 23.136719 20.40625 C 23.175781 20.40625 23.21875 20.402344 23.261719 20.390625 C 23.371094 20.367188 23.429688 20.296875 23.441406 20.1875 C 23.457031 20.089844 23.453125 19.996094 23.4375 19.898438 C 23.402344 19.886719 23.363281 19.878906 23.328125 19.878906 C 23.023438 19.875 22.71875 19.878906 22.417969 19.878906 C 22.40625 19.878906 22.394531 19.882812 22.382812 19.886719 C 22.378906 20.324219 22.382812 20.765625 22.378906 21.210938 C 22.289062 21.222656 22.199219 21.226562 22.109375 21.222656 C 22.105469 21.1875 22.101562 21.160156 22.101562 21.128906 C 22.101562 20.6875 22.101562 20.246094 22.101562 19.800781 C 22.101562 19.773438 22.101562 19.75 22.105469 19.722656 C 22.109375 19.652344 22.148438 19.613281 22.21875 19.605469 C 22.25 19.601562 22.28125 19.601562 22.3125 19.601562 C 22.652344 19.601562 22.996094 19.601562 23.335938 19.601562 C 23.386719 19.601562 23.4375 19.605469 23.484375 19.617188 C 23.609375 19.648438 23.683594 19.726562 23.707031 19.851562 C 23.742188 20.011719 23.738281 20.167969 23.695312 20.324219 C 23.640625 20.503906 23.523438 20.617188 23.339844 20.660156 C 23.289062 20.675781 23.234375 20.683594 23.171875 20.695312 Z M 23.171875 20.695312 " fill-opacity="1" fill-rule="nonzero"/><path fill="#ffffff" d="M 15.503906 19.609375 L 15.503906 19.867188 C 15.46875 19.871094 15.433594 19.875 15.398438 19.875 C 15.132812 19.875 14.863281 19.875 14.597656 19.875 C 14.566406 19.875 14.535156 19.875 14.503906 19.875 C 14.367188 19.882812 14.304688 19.953125 14.316406 20.089844 C 14.316406 20.140625 14.335938 20.1875 14.375 20.222656 C 14.414062 20.261719 14.460938 20.277344 14.515625 20.269531 C 14.730469 20.273438 14.949219 20.273438 15.167969 20.269531 C 15.246094 20.269531 15.316406 20.285156 15.386719 20.316406 C 15.457031 20.351562 15.515625 20.398438 15.5625 20.457031 C 15.609375 20.519531 15.640625 20.585938 15.65625 20.660156 C 15.667969 20.738281 15.667969 20.8125 15.644531 20.886719 C 15.582031 21.113281 15.433594 21.226562 15.195312 21.222656 C 14.933594 21.226562 14.675781 21.222656 14.414062 21.222656 L 14.0625 21.222656 L 14.0625 20.949219 C 14.09375 20.949219 14.128906 20.941406 14.160156 20.941406 C 14.503906 20.941406 14.84375 20.9375 15.1875 20.945312 C 15.265625 20.949219 15.324219 20.914062 15.363281 20.84375 C 15.402344 20.773438 15.398438 20.707031 15.355469 20.640625 C 15.316406 20.574219 15.257812 20.542969 15.179688 20.550781 C 14.980469 20.550781 14.78125 20.554688 14.585938 20.550781 C 14.507812 20.550781 14.429688 20.542969 14.355469 20.523438 C 14.125 20.453125 14.019531 20.300781 14.039062 20.0625 C 14.039062 19.824219 14.15625 19.675781 14.386719 19.621094 C 14.425781 19.609375 14.46875 19.605469 14.511719 19.601562 C 14.828125 19.601562 15.140625 19.601562 15.457031 19.601562 C 15.472656 19.605469 15.488281 19.609375 15.503906 19.609375 Z M 15.503906 19.609375 " fill-opacity="1" fill-rule="nonzero"/><path fill="#ffffff" d="M 4.539062 21.253906 C 4.414062 21.25 4.292969 21.242188 4.167969 21.222656 C 4.019531 21.195312 3.898438 21.121094 3.800781 21.003906 C 3.707031 20.886719 3.660156 20.75 3.660156 20.597656 C 3.660156 20.492188 3.660156 20.382812 3.660156 20.273438 C 3.644531 20.09375 3.699219 19.933594 3.820312 19.800781 C 3.9375 19.664062 4.089844 19.59375 4.269531 19.585938 C 4.464844 19.570312 4.65625 19.574219 4.851562 19.59375 C 5.007812 19.609375 5.136719 19.675781 5.242188 19.789062 C 5.351562 19.90625 5.40625 20.042969 5.40625 20.199219 C 5.414062 20.335938 5.414062 20.476562 5.40625 20.617188 C 5.402344 20.789062 5.339844 20.933594 5.21875 21.054688 C 5.101562 21.175781 4.953125 21.238281 4.78125 21.242188 C 4.703125 21.25 4.621094 21.242188 4.539062 21.242188 Z M 4.535156 20.964844 C 4.613281 20.964844 4.691406 20.96875 4.769531 20.964844 C 4.871094 20.964844 4.953125 20.929688 5.023438 20.855469 C 5.09375 20.785156 5.132812 20.699219 5.132812 20.601562 C 5.132812 20.480469 5.132812 20.359375 5.132812 20.238281 C 5.136719 20.144531 5.109375 20.0625 5.050781 19.988281 C 4.988281 19.917969 4.910156 19.878906 4.816406 19.871094 C 4.636719 19.847656 4.460938 19.847656 4.28125 19.863281 C 4.050781 19.886719 3.9375 20.03125 3.9375 20.265625 C 3.933594 20.375 3.933594 20.484375 3.9375 20.59375 C 3.933594 20.699219 3.972656 20.785156 4.046875 20.859375 C 4.121094 20.933594 4.210938 20.96875 4.316406 20.96875 C 4.390625 20.96875 4.460938 20.964844 4.535156 20.964844 Z M 4.535156 20.964844 " fill-opacity="1" fill-rule="nonzero"/><path fill="#ffffff" d="M 8.300781 20.066406 L 8.300781 21.214844 L 8.035156 21.214844 C 8.03125 21.183594 8.027344 21.15625 8.027344 21.125 C 8.027344 20.679688 8.027344 20.234375 8.027344 19.789062 C 8.027344 19.761719 8.027344 19.734375 8.03125 19.707031 C 8.035156 19.648438 8.066406 19.605469 8.121094 19.585938 C 8.175781 19.566406 8.226562 19.578125 8.265625 19.621094 C 8.355469 19.707031 8.441406 19.800781 8.527344 19.890625 C 8.800781 20.175781 9.078125 20.464844 9.371094 20.769531 L 9.371094 19.609375 L 9.648438 19.609375 C 9.648438 19.648438 9.652344 19.679688 9.652344 19.714844 C 9.652344 20.15625 9.652344 20.597656 9.652344 21.039062 C 9.652344 21.121094 9.648438 21.199219 9.558594 21.234375 C 9.472656 21.269531 9.421875 21.214844 9.367188 21.160156 C 9.074219 20.855469 8.785156 20.550781 8.492188 20.246094 C 8.433594 20.1875 8.375 20.132812 8.300781 20.066406 Z M 8.300781 20.066406 " fill-opacity="1" fill-rule="nonzero"/><path fill="#ffffff" d="M 19.9375 19.609375 L 20.210938 19.609375 L 20.210938 19.726562 C 20.210938 19.949219 20.210938 20.175781 20.214844 20.398438 C 20.214844 20.476562 20.226562 20.550781 20.25 20.625 C 20.320312 20.828125 20.460938 20.933594 20.675781 20.9375 C 20.871094 20.953125 21.070312 20.941406 21.28125 20.941406 L 21.28125 19.609375 C 21.375 19.59375 21.46875 19.597656 21.5625 19.617188 L 21.5625 19.722656 C 21.5625 20.148438 21.5625 20.574219 21.5625 21 C 21.5625 21.023438 21.5625 21.046875 21.558594 21.070312 C 21.566406 21.183594 21.515625 21.230469 21.40625 21.222656 C 21.167969 21.222656 20.929688 21.234375 20.695312 21.21875 C 20.523438 21.21875 20.375 21.167969 20.238281 21.0625 C 20.105469 20.960938 20.015625 20.828125 19.96875 20.667969 C 19.949219 20.609375 19.941406 20.554688 19.9375 20.496094 C 19.933594 20.203125 19.9375 19.914062 19.9375 19.609375 Z M 19.9375 19.609375 " fill-opacity="1" fill-rule="nonzero"/><path fill="#ffffff" d="M 17.570312 20.941406 L 17.570312 21.214844 C 17.546875 21.21875 17.523438 21.222656 17.5 21.222656 C 17.175781 21.222656 16.851562 21.222656 16.523438 21.222656 C 16.4375 21.222656 16.355469 21.203125 16.28125 21.15625 C 16.164062 21.089844 16.105469 20.988281 16.105469 20.855469 C 16.105469 20.488281 16.105469 20.121094 16.105469 19.753906 C 16.105469 19.648438 16.152344 19.605469 16.257812 19.601562 C 16.375 19.597656 16.488281 19.601562 16.605469 19.601562 L 17.566406 19.601562 L 17.566406 19.875 L 16.390625 19.875 C 16.386719 19.910156 16.382812 19.9375 16.382812 19.964844 C 16.378906 20.230469 16.378906 20.5 16.382812 20.765625 C 16.378906 20.792969 16.382812 20.820312 16.386719 20.847656 C 16.390625 20.910156 16.421875 20.941406 16.484375 20.941406 C 16.511719 20.945312 16.539062 20.945312 16.566406 20.941406 Z M 17.570312 20.941406 " fill-opacity="1" fill-rule="nonzero"/><path fill="#ffffff" d="M 11.65625 19.609375 L 11.65625 19.871094 C 11.558594 19.871094 11.464844 19.875 11.367188 19.875 C 11.269531 19.875 11.167969 19.875 11.066406 19.875 L 10.476562 19.875 C 10.472656 19.902344 10.46875 19.929688 10.46875 19.957031 C 10.46875 20.230469 10.46875 20.507812 10.46875 20.78125 C 10.46875 20.910156 10.503906 20.941406 10.636719 20.941406 C 10.933594 20.941406 11.234375 20.941406 11.53125 20.941406 L 11.660156 20.941406 L 11.660156 21.222656 L 11.570312 21.222656 C 11.253906 21.222656 10.941406 21.222656 10.625 21.21875 C 10.5625 21.21875 10.496094 21.210938 10.433594 21.1875 C 10.28125 21.132812 10.199219 21.023438 10.191406 20.859375 C 10.1875 20.804688 10.1875 20.753906 10.1875 20.699219 C 10.1875 20.402344 10.1875 20.109375 10.1875 19.8125 C 10.1875 19.78125 10.1875 19.75 10.191406 19.722656 C 10.195312 19.652344 10.234375 19.613281 10.304688 19.605469 C 10.328125 19.601562 10.351562 19.601562 10.375 19.601562 C 10.78125 19.601562 11.1875 19.601562 11.597656 19.601562 C 11.613281 19.601562 11.625 19.605469 11.65625 19.609375 Z M 11.65625 19.609375 " fill-opacity="1" fill-rule="nonzero"/><path fill="#ffffff" d="M 19.488281 19.875 L 19.042969 19.875 C 18.851562 19.875 18.65625 19.875 18.460938 19.875 C 18.339844 19.878906 18.300781 19.914062 18.300781 20.035156 C 18.300781 20.289062 18.300781 20.539062 18.300781 20.792969 C 18.300781 20.90625 18.339844 20.941406 18.457031 20.941406 C 18.761719 20.941406 19.0625 20.941406 19.367188 20.941406 L 19.484375 20.941406 L 19.484375 21.222656 L 19.402344 21.222656 C 19.089844 21.222656 18.773438 21.222656 18.460938 21.222656 C 18.414062 21.222656 18.367188 21.214844 18.320312 21.203125 C 18.125 21.167969 18.027344 21.046875 18.023438 20.847656 C 18.015625 20.5625 18.015625 20.273438 18.023438 19.988281 C 18.023438 19.878906 18.0625 19.785156 18.140625 19.710938 C 18.21875 19.632812 18.3125 19.597656 18.421875 19.601562 C 18.761719 19.597656 19.097656 19.601562 19.4375 19.601562 C 19.453125 19.601562 19.46875 19.605469 19.488281 19.609375 Z M 19.488281 19.875 " fill-opacity="1" fill-rule="nonzero"/><path fill="#ffffff" d="M 27.582031 20.683594 C 27.535156 20.683594 27.496094 20.683594 27.457031 20.683594 C 27.316406 20.691406 27.195312 20.648438 27.089844 20.554688 C 26.984375 20.457031 26.925781 20.339844 26.917969 20.199219 C 26.90625 20.007812 26.917969 19.8125 26.917969 19.609375 C 26.960938 19.605469 27.003906 19.605469 27.042969 19.601562 C 27.085938 19.601562 27.128906 19.601562 27.175781 19.601562 C 27.179688 19.640625 27.1875 19.671875 27.1875 19.699219 C 27.1875 19.824219 27.1875 19.949219 27.1875 20.074219 C 27.183594 20.101562 27.1875 20.132812 27.191406 20.164062 C 27.191406 20.234375 27.21875 20.292969 27.269531 20.34375 C 27.320312 20.390625 27.382812 20.410156 27.453125 20.40625 C 27.628906 20.410156 27.800781 20.410156 27.976562 20.40625 C 28.011719 20.40625 28.046875 20.398438 28.078125 20.386719 C 28.207031 20.363281 28.265625 20.289062 28.253906 20.160156 C 28.257812 20.015625 28.253906 19.871094 28.253906 19.730469 L 28.253906 19.609375 L 28.53125 19.609375 C 28.53125 19.816406 28.542969 20.019531 28.527344 20.21875 C 28.515625 20.351562 28.460938 20.460938 28.363281 20.550781 C 28.265625 20.640625 28.148438 20.683594 28.015625 20.683594 C 27.972656 20.6875 27.925781 20.683594 27.867188 20.683594 L 27.867188 21.214844 L 27.582031 21.214844 Z M 27.582031 20.683594 " fill-opacity="1" fill-rule="nonzero"/><path fill="#ffffff" d="M 13 21.222656 C 12.925781 21.222656 12.867188 21.222656 12.808594 21.222656 C 12.78125 21.222656 12.753906 21.21875 12.71875 21.21875 L 12.71875 19.882812 C 12.601562 19.871094 12.492188 19.878906 12.386719 19.875 C 12.28125 19.875 12.175781 19.875 12.070312 19.875 L 12.070312 19.609375 L 13.644531 19.609375 C 13.648438 19.648438 13.652344 19.691406 13.652344 19.730469 C 13.652344 19.773438 13.652344 19.816406 13.652344 19.871094 C 13.542969 19.878906 13.433594 19.878906 13.324219 19.875 C 13.222656 19.878906 13.117188 19.875 13 19.875 Z M 13 21.222656 " fill-opacity="1" fill-rule="nonzero"/><path fill="#ffffff" d="M 24.953125 19.605469 L 26.519531 19.605469 C 26.523438 19.652344 26.527344 19.695312 26.527344 19.734375 C 26.527344 19.777344 26.527344 19.820312 26.527344 19.871094 C 26.308594 19.882812 26.09375 19.871094 25.871094 19.878906 C 25.867188 20.328125 25.871094 20.765625 25.867188 21.214844 L 25.585938 21.214844 C 25.582031 21.070312 25.582031 20.925781 25.582031 20.78125 C 25.582031 20.628906 25.582031 20.476562 25.582031 20.324219 L 25.582031 19.878906 L 24.945312 19.878906 C 24.921875 19.785156 24.921875 19.695312 24.953125 19.605469 Z M 24.953125 19.605469 " fill-opacity="1" fill-rule="nonzero"/><path fill="#ffffff" d="M 1.96875 20.550781 C 1.964844 20.53125 1.964844 20.515625 1.960938 20.496094 C 1.960938 20.425781 1.960938 20.359375 1.960938 20.273438 C 2.117188 20.269531 2.269531 20.273438 2.417969 20.273438 C 2.566406 20.269531 2.71875 20.273438 2.882812 20.273438 C 2.890625 20.050781 2.882812 19.835938 2.886719 19.613281 C 2.980469 19.597656 3.070312 19.597656 3.160156 19.609375 L 3.160156 21.214844 C 3.144531 21.21875 3.128906 21.222656 3.113281 21.222656 C 3.042969 21.222656 2.972656 21.222656 2.890625 21.222656 L 2.890625 20.550781 Z M 1.96875 20.550781 " fill-opacity="1" fill-rule="nonzero"/><path fill="#ffffff" d="M 1.550781 19.609375 C 1.578125 19.605469 1.597656 19.601562 1.613281 19.601562 C 1.675781 19.601562 1.738281 19.601562 1.789062 19.601562 C 1.796875 19.605469 1.804688 19.609375 1.808594 19.617188 C 1.8125 19.617188 1.8125 19.621094 1.8125 19.625 C 1.816406 20.144531 1.816406 20.664062 1.816406 21.179688 C 1.816406 21.191406 1.8125 21.207031 1.808594 21.21875 L 1.558594 21.21875 C 1.539062 21.132812 1.53125 19.769531 1.550781 19.609375 Z M 1.550781 19.609375 " fill-opacity="1" fill-rule="nonzero"/><path fill="#ffffff" d="M 24.234375 19.613281 C 24.324219 19.597656 24.410156 19.597656 24.5 19.609375 L 24.5 21.210938 C 24.414062 21.226562 24.328125 21.226562 24.242188 21.21875 C 24.222656 21.136719 24.214844 19.769531 24.234375 19.613281 Z M 24.234375 19.613281 " fill-opacity="1" fill-rule="nonzero"/><path fill="#ffffff" d="M 10.613281 20.277344 L 11.519531 20.277344 C 11.535156 20.367188 11.539062 20.453125 11.523438 20.546875 L 10.613281 20.546875 Z M 10.613281 20.277344 " fill-opacity="1" fill-rule="nonzero"/><path fill="#ffffff" d="M 17.433594 20.546875 L 16.535156 20.546875 L 16.535156 20.277344 L 17.433594 20.277344 Z M 17.433594 20.546875 " fill-opacity="1" fill-rule="nonzero"/><path fill="#ffffff" d="M 4.339844 17.570312 L 4.359375 17.59375 L 4.265625 17.660156 L 4.25 17.640625 Z M 4.339844 17.570312 " fill-opacity="1" fill-rule="nonzero"/><path fill="#ffffff" d="M 24.160156 13.757812 C 24.140625 13.78125 24.128906 13.808594 24.109375 13.8125 C 24.054688 13.828125 24 13.839844 23.941406 13.835938 C 23.730469 13.820312 23.53125 13.769531 23.335938 13.683594 C 23.097656 13.570312 22.871094 13.4375 22.660156 13.285156 C 22.375 13.074219 22.148438 12.8125 21.980469 12.5 C 21.9375 12.414062 21.90625 12.324219 21.886719 12.226562 C 21.867188 12.128906 21.898438 12.058594 21.988281 12.015625 C 22.070312 11.957031 22.144531 11.964844 22.214844 12.035156 C 22.25 12.070312 22.28125 12.109375 22.300781 12.15625 C 22.371094 12.339844 22.464844 12.511719 22.585938 12.671875 C 22.691406 12.804688 22.804688 12.929688 22.933594 13.042969 C 23.050781 13.140625 23.164062 13.238281 23.289062 13.324219 C 23.515625 13.488281 23.765625 13.613281 24.03125 13.699219 C 24.0625 13.710938 24.097656 13.71875 24.128906 13.730469 C 24.136719 13.734375 24.140625 13.742188 24.160156 13.757812 Z M 24.160156 13.757812 " fill-opacity="1" fill-rule="nonzero"/></svg>