<?xml version="1.0" encoding="UTF-8"?>
<svg id="Capa_5" data-name="Capa 5" xmlns="http://www.w3.org/2000/svg" viewBox="0 0 32.67 37.69">
  <defs>
    <style>
      .cls-1 {
        fill: #ccc;
        stroke-width: 0px;
      }
    </style>
  </defs>
  <path class="cls-1" d="M3.74,31.89c-.62.13-1.23-.25-1.39-.87s-.31-1.23-.43-1.85c-.38-1.93-.6-3.87-.58-5.84.06-5.46,2.56-9.57,7.12-12.36,6.36-3.89,14.51-2.49,19.47,3.18,1.59,1.82,2.83,3.82,3.35,6.21.36,1.68.35,3.34-.18,4.95-1.06,3.19-4.57,5.06-7.71,3.88-1.62-.61-2.63-1.84-3.2-3.5-.32-.94-.55-1.91-.84-2.87-.5-1.64-2.15-2.66-3.84-2.37s-2.43,1.15-2.63,2.83c-.24,2.06.05,4.03,1.13,5.85,1.47,2.46,3.31,4.51,5.99,5.67.56.24,1.16.42,1.76.6s.94.78.8,1.38c0,0,0,.02,0,.03-.15.62-.78,1.01-1.4.86-.95-.23-1.86-.55-2.73-.99-3.54-1.81-5.97-4.67-7.38-8.31-.83-2.13-.92-4.43-.21-6.67.69-2.17,2.27-3.34,4.5-3.57.85-.09,1.73-.05,2.57.1,1.71.31,2.83,1.41,3.44,3.01.35.94.58,1.92.87,2.89.08.26.16.52.24.79.43,1.39,1.35,2.17,2.82,2.35,1.25.15,2.21-.25,2.91-1.27.9-1.32,1.1-2.81.91-4.36-.31-2.5-1.64-4.49-3.31-6.28-2.03-2.18-4.51-3.6-7.48-4.03-7.39-1.08-12.82,3.68-14.24,9.18-.41,1.59-.48,3.36-.35,4.98.2,1.96.64,3.81.95,4.97.18.65-.23,1.31-.89,1.45-.01,0-.02,0-.04,0Z"/>
  <path class="cls-1" d="M12.79,36.79h0c-.49.43-1.23.39-1.67-.09-.48-.53-.98-1.08-1.44-1.67-2.15-2.76-3.38-5.91-3.75-9.38-.27-2.56.12-5.04,1.34-7.34,1.49-2.82,3.88-4.37,6.99-4.86,1.62-.25,3.23-.23,4.82.19,2.06.54,3.73,1.67,5.02,3.36,1.36,1.79,2.32,4.37,2.6,6.5.08.65-.42,1.23-1.07,1.28h0c-.61.05-1.14-.4-1.23-1-.33-2.19-1.56-4.72-2.7-5.94-1.72-1.83-3.91-2.39-6.33-2.15-.85.08-1.71.27-2.51.56-2.13.79-3.37,2.43-4.06,4.53-.81,2.45-.66,4.89.04,7.33,1.18,3.56,2.95,5.82,4.02,6.94.47.49.44,1.27-.07,1.71Z"/>
  <path class="cls-1" d="M.56,14.42h0c-.56-.34-.73-1.07-.38-1.62.25-.4.5-.79.78-1.16,2.87-3.86,6.75-6.09,11.46-6.89,3.7-.63,7.35-.44,10.91.82,5.34,2.18,8.06,5.53,9.15,7.22.36.56.2,1.31-.37,1.67h0c-.54.35-1.26.21-1.63-.32-.91-1.32-2.75-3.66-5.25-5.08-2.78-1.65-5.81-2.3-9-2.29-3.04.01-5.95.6-8.62,2.11-3.07,1.6-4.68,3.82-5.42,5.13-.33.57-1.05.77-1.62.43Z"/>
  <path class="cls-1" d="M28.01,4.31c-.33.51-1,.69-1.54.4-.78-.41-1.54-.82-2.35-1.13-2.88-1.09-5.89-1.33-8.95-1.22-2.55.09-5.05.47-7.4,1.51-.54.24-1.05.53-1.57.83s-1.24.15-1.58-.38h0c-.36-.56-.19-1.3.37-1.65.92-.58,1.88-1.05,2.91-1.4C11.39.09,14.98-.16,18.62.08c2.7.18,5.34.69,7.79,1.9.42.2.81.44,1.22.69.56.34.73,1.08.37,1.63h0Z"/>
  <path class="cls-1" d="M28.15,32.32c.1.66-.37,1.27-1.04,1.36-7.08.87-11.23-3.65-11.97-9.51-.09-.68.41-1.3,1.09-1.35h0c.64-.05,1.19.42,1.27,1.06.03.21.05.41.09.62.39,2.01,1.17,3.83,2.75,5.2,1.68,1.46,3.7,1.84,5.86,1.71.21-.01.42-.03.64-.06.63-.07,1.21.36,1.31.99h0Z"/>
</svg>