<?xml version="1.0" encoding="UTF-8"?>
<svg id="Capa_1" data-name="Capa 1" xmlns="http://www.w3.org/2000/svg" viewBox="0 0 792 140.44">
  <defs>
    <style>
      .cls-1 {
        fill: #fff;
        stroke-width: 0px;
      }
    </style>
  </defs>
  <polygon class="cls-1" points="266.78 37.91 181.53 37.91 181.53 49.11 217.69 49.11 217.69 100.02 230.7 100.02 230.7 49.11 266.78 49.11 266.78 37.91"/>
  <path class="cls-1" d="M334.21,100.02h15.1l-15.28-18.92.75-.3c9.27-3.64,15.27-11.65,15.27-20.42,0-12.39-11.82-22.46-26.35-22.46h-51.22v62.11h12.92v-17.09h35.61l13.2,17.09ZM285.41,49.11h38.3c6.86,0,12.44,5.05,12.44,11.26s-5.58,11.35-12.44,11.35h-38.3v-22.62Z"/>
  <path class="cls-1" d="M369,94.34c6.51,5.1,16.24,7.58,29.75,7.58s23.17-2.48,29.67-7.58c6.83-5.36,10.15-13.63,10.15-25.28v-31.14h-12.29v31.14c0,14.98-8.49,21.66-27.54,21.66s-27.63-6.68-27.63-21.66v-31.14h-12.28v31.14c0,11.65,3.32,19.92,10.16,25.28Z"/>
  <polygon class="cls-1" points="518.96 49.11 518.96 37.91 447.81 37.91 447.81 100.11 518.96 100.11 518.96 89 460.73 89 460.73 74.61 515.43 74.61 515.43 63.41 460.73 63.41 460.73 49.11 518.96 49.11"/>
  <path class="cls-1" d="M605.54,73.67c1.45,2.53,2.08,5.34,2.08,8.68,0,4.61-1.81,10.94-10.31,14.83-6.15,2.8-15.1,4.07-28.3,4.07-18.26,0-29.66-2.8-35.81-8.77-5.24-5.06-5.15-9.13-5.15-11.94v-.45h14.65c0,8.14,7.59,8.77,26.31,8.77,22.6,0,24.14-4.97,24.14-6.51,0-4.25-12.93-6.87-24.41-7.78-13.65-.99-22.97-1.63-29.48-4.25-10.31-4.16-12.48-10.67-12.48-15.37,0-7.5,3.98-12.93,11.66-15.91,6.06-2.35,15.28-3.35,29.84-3.35s23.24,1.9,29.2,6.15c7.78,5.42,7.78,11.57,7.78,14.2h-14.56c0-6.87-8.77-8.05-22.42-8.05-12.3,0-26.13.99-26.13,6.24,0,5.88,17.45,7.41,27.76,8.14,14.01,1.08,22.42,1.81,27.94,4.61,3.44,1.63,6.06,3.89,7.69,6.69Z"/>
  <path class="cls-1" d="M628.87,37.32h58.23v12.39h-58.23v13.11h54.7v12.39h-54.7v13.2h58.23v12.3h-72.33v-63.38h14.1Z"/>
  <path class="cls-1" d="M706.91,69.06c0,15.19,9.22,21.07,28.3,21.07,16.28,0,25.41-4.25,27.76-14.92h14.38c-2.44,19.53-17,27.31-42.13,27.31-27.58,0-42.41-9.4-42.41-33.45s14.83-33.55,42.41-33.55c25.14,0,39.69,7.78,42.13,27.31h-14.38c-2.35-10.67-11.48-14.92-27.76-14.92-19.08,0-28.3,5.88-28.3,21.16Z"/>
  <path class="cls-1" d="M14.66,36.44c3.18,18.63,9.66,36.39,18.97,52.52,9.55,16.54,22.09,31.37,37.14,43.63v-1.18s.02,0,.03,0l-.39-51.97c-6.45-3.22-10.88-9.87-10.93-17.56L14.66,36.44Z"/>
  <path class="cls-1" d="M144.89,36.44c-3.18,18.63-9.66,36.39-18.97,52.52-9.55,16.54-22.09,31.37-37.14,43.63v-1.18s-.02,0-.03,0l.39-51.97c6.45-3.22,10.88-9.87,10.93-17.56l44.83-25.44Z"/>
  <path class="cls-1" d="M79.81,7.86h0s-.05,0-.08,0c-.03,0-.05,0-.08,0h0c-19.6.09-39.19,3.81-57.73,11.16l1.54.87,2.61,1.48,42.18,23.94c3.13-2.08,6.87-3.28,10.9-3.28.17,0,.33,0,.5,0h0s.05,0,.08,0c.03,0,.05,0,.08,0h0c.17,0,.33-.01.5-.01,4.03,0,7.77,1.21,10.9,3.28l42.18-23.94,2.61-1.48,1.54-.87c-18.54-7.35-38.13-11.07-57.73-11.16Z"/>
</svg>