<?xml version="1.0" encoding="UTF-8"?>
<svg id="Capa_1" data-name="Capa 1" xmlns="http://www.w3.org/2000/svg" viewBox="0 0 792 140.44">
  <defs>
    <style>
      .cls-1 {
        fill: #6bb234;
      }

      .cls-1, .cls-2 {
        stroke-width: 0px;
      }

      .cls-2 {
        fill: #fff;
      }
    </style>
  </defs>
  <polygon class="cls-2" points="263.51 37.1 176.09 37.1 176.09 48.58 213.18 48.58 213.18 100.78 226.51 100.78 226.51 48.58 263.51 48.58 263.51 37.1"/>
  <path class="cls-2" d="M332.65,100.78h15.49l-15.67-19.4.77-.3c9.51-3.73,15.65-11.95,15.65-20.94,0-12.7-12.12-23.03-27.02-23.03h-52.51v63.68h13.24v-17.52h36.51l13.54,17.52ZM282.6,48.58h39.27c7.03,0,12.75,5.18,12.75,11.55s-5.72,11.64-12.75,11.64h-39.27v-23.19Z"/>
  <path class="cls-2" d="M368.32,94.95c6.68,5.23,16.66,7.77,30.51,7.77s23.76-2.54,30.43-7.77c7-5.49,10.41-13.97,10.41-25.92v-31.93h-12.6v31.93c0,15.36-8.71,22.21-28.24,22.21s-28.33-6.85-28.33-22.21v-31.93h-12.6v31.93c0,11.95,3.41,20.43,10.42,25.92Z"/>
  <polygon class="cls-2" points="522.07 48.58 522.07 37.1 449.13 37.1 449.13 100.87 522.07 100.87 522.07 89.48 462.37 89.48 462.37 74.72 518.46 74.72 518.46 63.24 462.37 63.24 462.37 48.58 522.07 48.58"/>
  <path class="cls-1" d="M610.85,73.76c1.48,2.6,2.13,5.47,2.13,8.9,0,4.73-1.85,11.22-10.57,15.2-6.3,2.87-15.48,4.17-29.02,4.17-18.73,0-30.41-2.87-36.71-8.99-5.38-5.19-5.28-9.36-5.28-12.24v-.46h15.02c0,8.34,7.79,8.99,26.98,8.99,23.18,0,24.75-5.1,24.75-6.67,0-4.36-13.26-7.05-25.03-7.97-14-1.02-23.55-1.67-30.22-4.36-10.57-4.26-12.79-10.94-12.79-15.76,0-7.69,4.08-13.26,11.96-16.32,6.21-2.41,15.67-3.43,30.59-3.43s23.83,1.95,29.94,6.3c7.97,5.56,7.97,11.87,7.97,14.56h-14.93c0-7.05-8.99-8.25-22.99-8.25-12.61,0-26.79,1.02-26.79,6.4,0,6.03,17.89,7.6,28.46,8.34,14.37,1.11,22.99,1.85,28.65,4.73,3.52,1.67,6.21,3.99,7.88,6.86Z"/>
  <path class="cls-1" d="M634.77,36.49h59.7v12.7h-59.7v13.44h56.09v12.7h-56.09v13.54h59.7v12.61h-74.17V36.49h14.46Z"/>
  <path class="cls-1" d="M714.78,69.03c0,15.58,9.46,21.6,29.02,21.6,16.69,0,26.05-4.36,28.46-15.3h14.74c-2.5,20.02-17.43,28-43.2,28-28.28,0-43.48-9.64-43.48-34.3s15.2-34.39,43.48-34.39c25.77,0,40.7,7.97,43.2,28h-14.74c-2.41-10.94-11.77-15.3-28.46-15.3-19.56,0-29.02,6.03-29.02,21.69Z"/>
  <path class="cls-1" d="M5,35.58c3.26,19.11,9.9,37.32,19.45,53.85,9.8,16.96,22.65,32.16,38.08,44.73v-1.21s.02,0,.03,0l-.4-53.29c-6.61-3.3-11.16-10.12-11.2-18L5,35.58Z"/>
  <path class="cls-1" d="M138.53,35.58c-3.26,19.11-9.9,37.32-19.45,53.85-9.8,16.96-22.65,32.16-38.08,44.73v-1.21s-.02,0-.03,0l.4-53.29c6.61-3.3,11.16-10.12,11.2-18l45.96-26.08Z"/>
  <path class="cls-1" d="M71.8,6.28h0s-.06,0-.08,0c-.03,0-.06,0-.08,0h0c-20.1.09-40.18,3.91-59.19,11.44l1.58.89,2.67,1.52,43.25,24.55c3.21-2.13,7.04-3.37,11.18-3.37.17,0,.34,0,.51,0h0s.06,0,.08,0c.03,0,.06,0,.08,0h0c.17,0,.34-.01.51-.01,4.13,0,7.97,1.24,11.18,3.37l43.25-24.55,2.67-1.52,1.58-.89c-19.01-7.53-39.09-11.35-59.19-11.44Z"/>
</svg>