<?xml version="1.0" encoding="UTF-8"?>
<svg id="Capa_1" data-name="Capa 1" xmlns="http://www.w3.org/2000/svg" viewBox="0 0 113.58 113.58">
  <defs>
    <style>
      .cls-1 {
        fill: #c6c6c6;
        stroke-width: 0px;
      }
    </style>
  </defs>
  <path class="cls-1" d="M100.72,99.61c-4.32-.63-8.65-1.26-12.97-1.88-6.98-1-13.96-2-20.94-3-2.6-.37-5.2-.74-7.8-1.12-.36-.05-.72-.12-1.09-.18v-32.33c.27-.02.49-.06.71-.06,13.89,0,27.78,0,41.67,0,.14,0,.28.02.43.03v38.54Z"/>
  <path class="cls-1" d="M100.72,52.51c-.31.01-.63.04-.94.04-13.61,0-27.21,0-40.82,0h-1.05V20.14c1.96-.29,3.9-.57,5.84-.85,7.43-1.07,14.87-2.13,22.3-3.2,4.58-.66,9.16-1.31,13.74-1.96.31-.04.62-.11.93-.16v38.54Z"/>
  <path class="cls-1" d="M12.86,61.07c.26-.01.51-.03.77-.03,11.6,0,23.21,0,34.81,0h.9v30.74c-1.53-.21-3.03-.42-4.52-.63-7.43-1.06-14.87-2.13-22.3-3.19-3.22-.46-6.44-.91-9.67-1.36,0-8.51,0-17.01,0-25.52Z"/>
  <path class="cls-1" d="M12.86,26.99c3.45-.48,6.9-.96,10.35-1.45,6.98-1,13.96-2,20.94-3,1.72-.25,3.43-.49,5.21-.74v30.67c-.23.02-.44.07-.66.07-11.8,0-23.61,0-35.41,0-.14,0-.28-.02-.43-.04,0-8.51,0-17.01,0-25.52Z"/>
</svg>