<?xml version="1.0" encoding="UTF-8"?>
<svg id="Capa_1" data-name="Capa 1" xmlns="http://www.w3.org/2000/svg" viewBox="0 0 113.58 113.58">
  <defs>
    <style>
      .cls-1 {
        fill: #c6c6c6;
        stroke-width: 0px;
      }
    </style>
  </defs>
  <path class="cls-1" d="M109.96,71.66c0,10.67-9,19.3-20.11,19.3-.13,0-.27,0-.42-.02,0,0-60.47.07-60.91.07-13.76,0-24.9-11.03-24.9-24.81s11.12-24.87,24.85-24.9c1.85-10.65,11.14-18.75,22.32-18.75,6.77,0,12.84,2.98,17,7.68.93-.13,1.88-.2,2.85-.2,11.31,0,20.49,9.19,20.49,20.49,0,.64-.04,1.26-.09,1.87,10.56.59,18.92,9,18.92,19.27Z"/>
</svg>