<?xml version="1.0" encoding="UTF-8"?>
<svg id="Capa_5" data-name="Capa 5" xmlns="http://www.w3.org/2000/svg" viewBox="0 0 38.18 43.89">
  <defs>
    <style>
      .cls-1 {
        fill: #ccc;
        stroke-width: 0px;
      }
    </style>
  </defs>
  <g>
    <path class="cls-1" d="M.77,16.41c0-2.67,0-5.34,0-8.01,0-1.18.41-1.75,1.53-2.13C7.78,4.42,13.26,2.57,18.74.74c.21-.07.49-.07.7,0,5.43,1.81,10.85,3.65,16.28,5.46.77.26,1.41.63,1.6,1.48.06.25.06.52.06.78,0,4.94-.06,9.87.02,14.81.07,4.21-1.52,7.67-4.46,10.59-2.09,2.08-4.52,3.72-7.02,5.26-2.19,1.35-4.38,2.68-6.58,4.01-.12.07-.35.11-.45.05-3.23-2-6.49-3.96-9.67-6.04-2.37-1.55-4.48-3.41-6.11-5.77-1.52-2.2-2.33-4.62-2.35-7.3-.02-2.55,0-5.11,0-7.66h0ZM35.16,9.03c0-.46-.16-.7-.61-.85-4.98-1.66-9.95-3.34-14.92-5.03-.38-.13-.71-.13-1.09,0-4.97,1.68-9.94,3.36-14.92,5.03-.44.15-.62.38-.62.84.01,4.89.01,9.79,0,14.68,0,2.3.6,4.41,1.9,6.32,1.37,2.01,3.14,3.63,5.15,4.96,2.84,1.88,5.76,3.64,8.65,5.45.29.18.54.12.81-.04,2.17-1.32,4.35-2.62,6.5-3.97,2.32-1.45,4.53-3.05,6.3-5.17,1.62-1.93,2.71-4.11,2.79-6.66.08-2.57.04-12.94.06-15.55Z"/>
    <path class="cls-1" d="M18.12,24.92c0-.2,0-.41,0-.61.02-.4-.05-.72-.35-1.05-.59-.65-.46-1.68.2-2.26.65-.57,1.63-.55,2.25.06.63.61.7,1.63.1,2.27-.25.26-.31.52-.3.85.01.58.01,1.16,0,1.74,0,.63-.41,1.06-.97,1.05-.54-.01-.92-.43-.93-1.04,0-.33,0-.67,0-1Z"/>
  </g>
  <g>
    <path class="cls-1" d="M34.11,9.75c0-.46-.12-.67-.58-.82-4.68-1.55-9.34-3.14-14.02-4.7-.26-.09-.6-.09-.87,0-4.74,1.58-9.48,3.18-14.22,4.77-.31.1-.38.27-.38.56.01,2.51,0,5.02,0,7.53,0,2.18.02,4.36,0,6.53-.03,2.67.84,5,2.63,6.95.97,1.05,2.03,2.04,3.15,2.93,2.8,2.23,5.95,3.93,9.01,5.77.12.07.37.05.5-.02,1.87-1.11,3.74-2.22,5.59-3.38,2.16-1.35,4.25-2.79,6.02-4.64,2.1-2.21,3.21-4.79,3.18-7.89-.06-4.53-.02-9.06,0-13.59ZM27.94,28.36c0,1.49-.79,2.28-2.28,2.29-4.39,0-8.77,0-13.16,0-1.49,0-2.28-.79-2.28-2.28,0-3.05,0-6.1,0-9.15,0-1.5.79-2.29,2.28-2.29.29,0,.59,0,.88,0v-1.07h0c0-.93-.05-1.86.01-2.78.21-2.97,2.46-5.18,5.42-5.35,2.81-.17,5.37,1.83,5.86,4.7.19,1.1.11,2.25.16,3.45h0v1.05c.28,0,.55,0,.83,0,1.49,0,2.28.79,2.28,2.29,0,3.05,0,6.1,0,9.15Z"/>
    <path class="cls-1" d="M22.24,13.76c-.01-.39-.02-.79-.12-1.16-.4-1.54-1.85-2.49-3.48-2.31-1.45.16-2.65,1.44-2.72,2.95-.03.71.01,3.69.01,3.69,1.06,0,2.08,0,3.14,0s2.12,0,3.17,0c0,0,0-2.47,0-3.16Z"/>
  </g>
</svg>