<?xml version="1.0" encoding="UTF-8"?>
<svg id="Capa_1" data-name="Capa 1" xmlns="http://www.w3.org/2000/svg" viewBox="0 0 113.58 113.58">
  <defs>
    <style>
      .cls-1 {
        fill: #c6c6c6;
        stroke-width: 0px;
      }
    </style>
  </defs>
  <path class="cls-1" d="M59.27,76.33c-.99,1.69-2,3.37-3.01,5.05-.15.25-.3.5-.45.75-.85,1.41-1.69,2.81-2.53,4.22-.85,1.43-2.17,2.27-3.63,2.33h-.07c-1.85,0-3.43-.8-4.25-2.16-.31-.51-.48-1.06-.52-1.61-1.02,1.14-2.33,1.8-3.74,1.86h-.1c-2.28,0-4.27-1.01-5.33-2.72-.42-.69-.66-1.44-.72-2.2-.7.39-1.46.63-2.26.65h-.04s-.05,0-.05,0c-2.29,0-4.28-1.01-5.33-2.72-.88-1.42-.97-3.09-.3-4.65-.15.03-.3.04-.46.05h-.07c-1.82,0-3.39-.81-4.23-2.16-.74-1.2-.78-2.63-.12-3.93.6-1.16,1.26-2.29,1.91-3.38.28-.48.56-.95.84-1.43l.52-.9.47-.82c.8-1.4,1.61-2.8,2.43-4.2.94-1.6,2.46-2.49,4.07-2.49.68,0,1.38.16,2.06.49,1.1.54,1.89,1.44,2.22,2.52.04.11.06.22.09.34.99-.73,2.14-1.11,3.32-1.11.86,0,1.74.2,2.6.62,1.39.68,2.38,1.81,2.8,3.17.12.4.19.81.21,1.23.86-.49,1.81-.75,2.79-.75.86,0,1.75.2,2.6.62,1.39.68,2.38,1.81,2.8,3.17.43,1.41.22,2.97-.59,4.4.7-.41,1.49-.63,2.3-.63.67,0,1.37.15,2.03.47,1.12.53,1.91,1.41,2.24,2.48.33,1.09.15,2.3-.5,3.4Z"/>
  <path class="cls-1" d="M88.9,61.82c-8.91-5.74-17.83-11.47-26.74-17.23-.6-.39-1.01-.36-1.7-.1-1.23.47-2.61.97-3.88.85-1.34-.12-2.1.26-2.91,1.21-1.68,1.98-3.68,3.52-6.35,3.97-2.7.45-4.95-.36-6.19-2.37-1.38-2.23-1.12-4.42.41-6.47,1.11-1.49,2.29-2.93,3.62-4.61-1.94-.13-3.75-.22-5.55-.39-1.13-.11-2.29-.23-3.37-.55-1.89-.57-3.75-1.27-5.65-1.94l.36-.63c1-1.73.41-3.94-1.32-4.94l-5.46-3.15c-1.73-1-3.94-.41-4.94,1.32l-12.73,22.05c-1,1.73-.41,3.94,1.32,4.94l5.46,3.15c1.73,1,3.94.41,4.94-1.32l.11-.18s.03.1.05.13c1.53,2.15,3.11,4.27,4.83,6.61l.21.12.46-.81c.79-1.38,1.6-2.8,2.44-4.22,1.32-2.24,3.55-3.57,5.97-3.57,1.04,0,2.07.24,3.04.72.94.46,1.74,1.11,2.34,1.89.75-.24,1.53-.36,2.32-.36,1.23,0,2.43.28,3.57.85,1.6.79,2.83,2.02,3.55,3.52.42-.07.85-.11,1.27-.11,1.23,0,2.43.29,3.57.85,1.94.96,3.34,2.55,3.93,4.5.22.73.33,1.49.32,2.26.78.08,1.53.3,2.27.64,1.68.8,2.89,2.16,3.4,3.83.52,1.68.26,3.52-.71,5.16-.99,1.68-2.01,3.38-3,5.03l.7.41c1.97,1.31,3.8,2.65,5.76,3.78,1.59.92,3.34.82,4.96-.09,1.71-.96,1.75-2.77.15-3.9-1.49-1.05-3.02-2.05-4.52-3.09-.98-.69-1.23-1.48-.67-2.2.69-.89,1.49-.72,2.31-.15,1.48,1.02,2.95,2.04,4.45,3.02,2,1.3,4.29,1.11,5.93-.47,1.7-1.63,1.54-3.47-.41-4.76-2.37-1.55-4.75-3.08-7.09-4.66-.42-.29-.86-.79-.95-1.26-.08-.4.23-1.15.55-1.28.51-.2,1.3-.21,1.75.06,2.48,1.52,4.89,3.15,7.33,4.74,1.27.83,2.64,1.08,4.11.7,1.48-.39,2.71-1.57,2.82-2.77.15-1.52-.81-2.32-1.97-2.99-2.72-1.57-5.45-3.14-8.17-4.73-1.02-.6-1.34-1.39-.84-2.14.6-.9,1.35-.86,2.19-.39,1.59.89,3.14,1.85,4.74,2.74,1.71.95,3.36,2.01,5.1,2.92,1.44.76,3.28.22,3.98-1.06.58-1.06.1-2.08-1.47-3.09Z"/>
  <path class="cls-1" d="M106.87,47.66l-15.42-21.27c-1.17-1.62-3.44-1.98-5.05-.81l-5.1,3.7c-1.28.93-1.77,2.54-1.34,3.97-3.42,1.59-6.87,1.69-10.48.38-2.04-.74-12.63-4.15-21.12,4.83-1.59,1.68-3.18,3.43-4.69,5.22-.71.84-.72,1.84-.19,2.8.52.93,1.34,1.27,2.4,1.26,1.73-.02,3.19-.66,4.41-1.84,1.03-1,2.01-2.05,2.98-3.11.64-.71,1.34-.93,2.24-.55,1.5.62,2.96.43,4.15-.61,1.13-.99,2.03-.79,3.18-.03,8.82,5.74,17.7,11.38,26.5,17.15,1.42.93,2.65.92,3.98.2.76-.41,1.49-.94,2.09-1.55.48-.5.75-.93.85-1.37,1.23,1.27,3.24,1.47,4.71.41l5.1-3.7c1.62-1.17,1.98-3.44.81-5.05Z"/>
</svg>