<?xml version="1.0" encoding="UTF-8"?>
<svg id="Capa_1" data-name="Capa 1" xmlns="http://www.w3.org/2000/svg" viewBox="0 0 113.58 113.58">
  <defs>
    <style>
      .cls-1 {
        fill: #ffffff;
        stroke-width: 0px;
      }
    </style>
  </defs>
  <path class="cls-1" d="M31.93,71.22c-3.73,0-7.26.04-10.8,0-5.57-.07-9.93-3.58-11.04-8.89-.19-.92-.21-1.88-.22-2.83-.01-12.47-.02-24.93,0-37.4,0-7,4.68-11.64,11.71-11.64,19.79,0,39.59,0,59.38,0,6.98,0,11.7,4.69,11.72,11.67.02,10.27,0,20.53,0,30.8,0,.51,0,1.03,0,1.6.87.15,1.67.24,2.46.42,4.86,1.12,8.41,5.28,8.49,10.26.1,5.82.12,11.65,0,17.47-.12,5.85-4.91,10.48-10.76,10.6-1.85.04-3.7,0-5.78,0,0,2.04.06,4-.02,5.97-.1,2.41-2.2,4.19-4.56,3.83-.77-.12-1.56-.51-2.23-.94-4.14-2.72-8.24-5.5-12.39-8.21-.57-.37-1.33-.58-2.02-.61-2.79-.13-5.63.1-8.38-.3-5.12-.75-8.88-5.31-9-10.49-.05-2.35,0-4.71,0-7.06-.12-.08-.25-.16-.37-.25-.34.43-.64.89-1.02,1.28-2.61,2.63-5.23,5.26-7.87,7.87-1.51,1.49-3.15,1.88-4.82,1.11-1.76-.81-2.52-2.24-2.5-4.15.03-3.31,0-6.62,0-10.1ZM81.62,96.42c0-1.94,0-3.65,0-5.35.01-2.28.95-3.25,3.21-3.27,2.5-.02,5,.02,7.5-.01,3.53-.04,5.84-2.36,5.85-5.86.02-5.31.02-10.61,0-15.92-.01-3.37-2.29-5.79-5.63-5.8-10.95-.04-21.91-.04-32.86,0-3.3.01-5.64,2.34-5.67,5.64-.06,5.43-.06,10.87,0,16.3.03,3.37,2.41,5.65,5.77,5.68,2.46.02,4.92-.08,7.37.04.98.05,2.04.37,2.88.87,2.14,1.29,4.18,2.75,6.26,4.13,1.71,1.14,3.42,2.27,5.34,3.54Z"/>
  <path class="cls-1" d="M76.19,65.65c4.44,0,8.87-.03,13.31.01,2.32.02,3.66,1.76,2.97,3.72-.41,1.17-1.41,1.81-2.97,1.82-2.58.02-5.17,0-7.75,0-6.29,0-12.58,0-18.87,0-1.95,0-3.11-.87-3.29-2.39-.21-1.84.97-3.13,3.03-3.16,3.14-.04,6.29-.01,9.43-.01,1.38,0,2.76,0,4.14,0Z"/>
  <path class="cls-1" d="M70.61,82.22c-2.63,0-5.26.01-7.89,0-2.03-.01-3.17-1.03-3.15-2.77.02-1.69,1.22-2.72,3.22-2.72,5.21,0,10.43-.01,15.64,0,1.95,0,3.2,1.12,3.17,2.79-.02,1.65-1.2,2.68-3.12,2.7-2.63.02-5.26,0-7.89,0Z"/>
</svg>