<?xml version="1.0" encoding="UTF-8"?>
<svg id="Capa_1" data-name="Capa 1" xmlns="http://www.w3.org/2000/svg" viewBox="0 0 113.58 113.58">
  <defs>
    <style>
      .cls-1 {
        fill: #c6c6c6;
        stroke-width: 0px;
      }
    </style>
  </defs>
  <path class="cls-1" d="M88.12,31.28c-1.66-9.95-10.32-17.5-20.72-17.5-6.09,0-11.57,2.58-15.41,6.74-3.73-2.44-8.21-3.88-13.03-3.88-13.17,0-23.84,10.67-23.84,23.84,0,.81.04,1.63.12,2.42-.35.19-.7.39-1.04.6h21.76l15.45-12.72h12.7c1.01-1.66,2.82-2.77,4.9-2.77,3.18,0,5.76,2.58,5.76,5.76s-2.58,5.76-5.76,5.76c-2.99,0-5.42-2.29-5.7-5.2h-10.63l-15.45,12.72H9.89c-1.79,1.94-3.21,4.23-4.15,6.76h35.11l10-7.57h31.71c.53-1.99,2.09-3.64,4.24-4.14,3.1-.72,6.19,1.21,6.91,4.3.72,3.1-1.21,6.19-4.3,6.91-2.83.66-5.63-.9-6.65-3.53h-30.72l-10,7.57H4.79c-.2,1.16-.32,2.34-.32,3.56,0,.88.07,1.75.18,2.6h39.35l5.91,5.91h13.1c.79-2.23,2.9-3.83,5.4-3.83,3.18,0,5.76,2.58,5.76,5.76s-2.58,5.76-5.76,5.76c-2.61,0-4.79-1.75-5.5-4.14h-14.47l-5.91-5.91H5.41c2.61,8.26,10.33,14.27,19.46,14.27,4.04,0,7.79-1.17,10.95-3.19,3.75,5.72,10.23,9.49,17.56,9.49,3.98,0,7.72-1.11,10.88-3.04,4.34,5.33,9.15,10.26,14.39,14.76.37.32.83.48,1.29.48.74,0,1.49-.42,1.82-1.17,2.27-4.97,4.18-10.07,5.7-15.31,12.32-2.3,21.64-13.11,21.64-26.09s-8.99-23.41-20.99-25.96Z"/>
</svg>